<?xml version="1.0" encoding="utf-8"?>
<svg xmlns="http://www.w3.org/2000/svg" xmlns:xlink="http://www.w3.org/1999/xlink" width="700" height="300" viewBox="0 0 2800 1200">
<defs>
  <clipPath id="clip000">
    <rect x="0" y="0" width="2800" height="1200"/>
  </clipPath>
</defs>
<defs>
  <clipPath id="clip001">
    <rect x="271" y="164" width="2419" height="830"/>
  </clipPath>
</defs>
<polyline clip-path="url(#clip000)" style="stroke:#000000; stroke-linecap:round; stroke-linejoin:round; stroke-width:4; stroke-opacity:1; fill:none" points="271.658,993.502 2689.76,993.502 "/>
<polyline clip-path="url(#clip000)" style="stroke:#000000; stroke-linecap:round; stroke-linejoin:round; stroke-width:4; stroke-opacity:1; fill:none" points="340.095,993.502 340.095,974.604 "/>
<polyline clip-path="url(#clip000)" style="stroke:#000000; stroke-linecap:round; stroke-linejoin:round; stroke-width:4; stroke-opacity:1; fill:none" points="910.403,993.502 910.403,974.604 "/>
<polyline clip-path="url(#clip000)" style="stroke:#000000; stroke-linecap:round; stroke-linejoin:round; stroke-width:4; stroke-opacity:1; fill:none" points="1480.71,993.502 1480.71,974.604 "/>
<polyline clip-path="url(#clip000)" style="stroke:#000000; stroke-linecap:round; stroke-linejoin:round; stroke-width:4; stroke-opacity:1; fill:none" points="2051.02,993.502 2051.02,974.604 "/>
<polyline clip-path="url(#clip000)" style="stroke:#000000; stroke-linecap:round; stroke-linejoin:round; stroke-width:4; stroke-opacity:1; fill:none" points="2621.33,993.502 2621.33,974.604 "/>
<path clip-path="url(#clip000)" d="M340.095 1027.62 Q336.484 1027.62 334.655 1031.19 Q332.849 1034.73 332.849 1041.86 Q332.849 1048.96 334.655 1052.53 Q336.484 1056.07 340.095 1056.07 Q343.729 1056.07 345.535 1052.53 Q347.363 1048.96 347.363 1041.86 Q347.363 1034.73 345.535 1031.19 Q343.729 1027.62 340.095 1027.62 M340.095 1023.92 Q345.905 1023.92 348.96 1028.52 Q352.039 1033.11 352.039 1041.86 Q352.039 1050.58 348.96 1055.19 Q345.905 1059.77 340.095 1059.77 Q334.285 1059.77 331.206 1055.19 Q328.15 1050.58 328.15 1041.86 Q328.15 1033.11 331.206 1028.52 Q334.285 1023.92 340.095 1023.92 Z" fill="#000000" fill-rule="nonzero" fill-opacity="1" /><path clip-path="url(#clip000)" d="M889.176 1055.17 L905.495 1055.17 L905.495 1059.1 L883.551 1059.1 L883.551 1055.17 Q886.213 1052.41 890.796 1047.78 Q895.403 1043.13 896.583 1041.79 Q898.829 1039.26 899.708 1037.53 Q900.611 1035.77 900.611 1034.08 Q900.611 1031.32 898.667 1029.59 Q896.745 1027.85 893.644 1027.85 Q891.445 1027.85 888.991 1028.62 Q886.56 1029.38 883.783 1030.93 L883.783 1026.21 Q886.607 1025.07 889.06 1024.5 Q891.514 1023.92 893.551 1023.92 Q898.921 1023.92 902.116 1026.6 Q905.31 1029.29 905.31 1033.78 Q905.31 1035.91 904.5 1037.83 Q903.713 1039.73 901.607 1042.32 Q901.028 1042.99 897.926 1046.21 Q894.824 1049.4 889.176 1055.17 Z" fill="#000000" fill-rule="nonzero" fill-opacity="1" /><path clip-path="url(#clip000)" d="M925.31 1027.62 Q921.699 1027.62 919.87 1031.19 Q918.065 1034.73 918.065 1041.86 Q918.065 1048.96 919.87 1052.53 Q921.699 1056.07 925.31 1056.07 Q928.944 1056.07 930.75 1052.53 Q932.579 1048.96 932.579 1041.86 Q932.579 1034.73 930.75 1031.19 Q928.944 1027.62 925.31 1027.62 M925.31 1023.92 Q931.12 1023.92 934.176 1028.52 Q937.254 1033.11 937.254 1041.86 Q937.254 1050.58 934.176 1055.19 Q931.12 1059.77 925.31 1059.77 Q919.5 1059.77 916.421 1055.19 Q913.366 1050.58 913.366 1041.86 Q913.366 1033.11 916.421 1028.52 Q919.5 1023.92 925.31 1023.92 Z" fill="#000000" fill-rule="nonzero" fill-opacity="1" /><path clip-path="url(#clip000)" d="M1468.88 1028.62 L1457.08 1047.07 L1468.88 1047.07 L1468.88 1028.62 M1467.66 1024.54 L1473.53 1024.54 L1473.53 1047.07 L1478.47 1047.07 L1478.47 1050.95 L1473.53 1050.95 L1473.53 1059.1 L1468.88 1059.1 L1468.88 1050.95 L1453.28 1050.95 L1453.28 1046.44 L1467.66 1024.54 Z" fill="#000000" fill-rule="nonzero" fill-opacity="1" /><path clip-path="url(#clip000)" d="M1496.2 1027.62 Q1492.59 1027.62 1490.76 1031.19 Q1488.95 1034.73 1488.95 1041.86 Q1488.95 1048.96 1490.76 1052.53 Q1492.59 1056.07 1496.2 1056.07 Q1499.83 1056.07 1501.64 1052.53 Q1503.47 1048.96 1503.47 1041.86 Q1503.47 1034.73 1501.64 1031.19 Q1499.83 1027.62 1496.2 1027.62 M1496.2 1023.92 Q1502.01 1023.92 1505.06 1028.52 Q1508.14 1033.11 1508.14 1041.86 Q1508.14 1050.58 1505.06 1055.19 Q1502.01 1059.77 1496.2 1059.77 Q1490.39 1059.77 1487.31 1055.19 Q1484.25 1050.58 1484.25 1041.86 Q1484.25 1033.11 1487.31 1028.52 Q1490.39 1023.92 1496.2 1023.92 Z" fill="#000000" fill-rule="nonzero" fill-opacity="1" /><path clip-path="url(#clip000)" d="M2036.42 1039.96 Q2033.28 1039.96 2031.42 1042.11 Q2029.6 1044.26 2029.6 1048.01 Q2029.6 1051.74 2031.42 1053.92 Q2033.28 1056.07 2036.42 1056.07 Q2039.57 1056.07 2041.4 1053.92 Q2043.25 1051.74 2043.25 1048.01 Q2043.25 1044.26 2041.4 1042.11 Q2039.57 1039.96 2036.42 1039.96 M2045.71 1025.31 L2045.71 1029.57 Q2043.95 1028.73 2042.14 1028.29 Q2040.36 1027.85 2038.6 1027.85 Q2033.97 1027.85 2031.52 1030.98 Q2029.09 1034.1 2028.74 1040.42 Q2030.1 1038.41 2032.16 1037.34 Q2034.22 1036.25 2036.7 1036.25 Q2041.91 1036.25 2044.92 1039.43 Q2047.95 1042.57 2047.95 1048.01 Q2047.95 1053.34 2044.8 1056.56 Q2041.66 1059.77 2036.42 1059.77 Q2030.43 1059.77 2027.26 1055.19 Q2024.09 1050.58 2024.09 1041.86 Q2024.09 1033.66 2027.97 1028.8 Q2031.86 1023.92 2038.41 1023.92 Q2040.17 1023.92 2041.96 1024.26 Q2043.76 1024.61 2045.71 1025.31 Z" fill="#000000" fill-rule="nonzero" fill-opacity="1" /><path clip-path="url(#clip000)" d="M2066.01 1027.62 Q2062.4 1027.62 2060.57 1031.19 Q2058.76 1034.73 2058.76 1041.86 Q2058.76 1048.96 2060.57 1052.53 Q2062.4 1056.07 2066.01 1056.07 Q2069.64 1056.07 2071.45 1052.53 Q2073.28 1048.96 2073.28 1041.86 Q2073.28 1034.73 2071.45 1031.19 Q2069.64 1027.62 2066.01 1027.62 M2066.01 1023.92 Q2071.82 1023.92 2074.87 1028.52 Q2077.95 1033.11 2077.95 1041.86 Q2077.95 1050.58 2074.87 1055.19 Q2071.82 1059.77 2066.01 1059.77 Q2060.2 1059.77 2057.12 1055.19 Q2054.06 1050.58 2054.06 1041.86 Q2054.06 1033.11 2057.12 1028.52 Q2060.2 1023.92 2066.01 1023.92 Z" fill="#000000" fill-rule="nonzero" fill-opacity="1" /><path clip-path="url(#clip000)" d="M2606.2 1042.69 Q2602.87 1042.69 2600.94 1044.47 Q2599.05 1046.25 2599.05 1049.38 Q2599.05 1052.5 2600.94 1054.29 Q2602.87 1056.07 2606.2 1056.07 Q2609.53 1056.07 2611.45 1054.29 Q2613.38 1052.48 2613.38 1049.38 Q2613.38 1046.25 2611.45 1044.47 Q2609.56 1042.69 2606.2 1042.69 M2601.52 1040.7 Q2598.51 1039.96 2596.82 1037.9 Q2595.16 1035.84 2595.16 1032.88 Q2595.16 1028.73 2598.1 1026.32 Q2601.06 1023.92 2606.2 1023.92 Q2611.36 1023.92 2614.3 1026.32 Q2617.24 1028.73 2617.24 1032.88 Q2617.24 1035.84 2615.55 1037.9 Q2613.88 1039.96 2610.9 1040.7 Q2614.28 1041.49 2616.15 1043.78 Q2618.05 1046.07 2618.05 1049.38 Q2618.05 1054.4 2614.97 1057.09 Q2611.92 1059.77 2606.2 1059.77 Q2600.48 1059.77 2597.4 1057.09 Q2594.35 1054.4 2594.35 1049.38 Q2594.35 1046.07 2596.25 1043.78 Q2598.14 1041.49 2601.52 1040.7 M2599.81 1033.32 Q2599.81 1036 2601.48 1037.5 Q2603.17 1039.01 2606.2 1039.01 Q2609.21 1039.01 2610.9 1037.5 Q2612.61 1036 2612.61 1033.32 Q2612.61 1030.63 2610.9 1029.13 Q2609.21 1027.62 2606.2 1027.62 Q2603.17 1027.62 2601.48 1029.13 Q2599.81 1030.63 2599.81 1033.32 Z" fill="#000000" fill-rule="nonzero" fill-opacity="1" /><path clip-path="url(#clip000)" d="M2636.36 1027.62 Q2632.75 1027.62 2630.92 1031.19 Q2629.12 1034.73 2629.12 1041.86 Q2629.12 1048.96 2630.92 1052.53 Q2632.75 1056.07 2636.36 1056.07 Q2640 1056.07 2641.8 1052.53 Q2643.63 1048.96 2643.63 1041.86 Q2643.63 1034.73 2641.8 1031.19 Q2640 1027.62 2636.36 1027.62 M2636.36 1023.92 Q2642.17 1023.92 2645.23 1028.52 Q2648.31 1033.11 2648.31 1041.86 Q2648.31 1050.58 2645.23 1055.19 Q2642.17 1059.77 2636.36 1059.77 Q2630.55 1059.77 2627.47 1055.19 Q2624.42 1050.58 2624.42 1041.86 Q2624.42 1033.11 2627.47 1028.52 Q2630.55 1023.92 2636.36 1023.92 Z" fill="#000000" fill-rule="nonzero" fill-opacity="1" /><path clip-path="url(#clip000)" d="M1402.59 1096.85 L1442.79 1096.85 L1442.79 1102.26 L1425.92 1102.26 L1425.92 1144.37 L1419.46 1144.37 L1419.46 1102.26 L1402.59 1102.26 L1402.59 1096.85 Z" fill="#000000" fill-rule="nonzero" fill-opacity="1" /><path clip-path="url(#clip000)" d="M1446.73 1108.72 L1452.59 1108.72 L1452.59 1144.37 L1446.73 1144.37 L1446.73 1108.72 M1446.73 1094.84 L1452.59 1094.84 L1452.59 1102.26 L1446.73 1102.26 L1446.73 1094.84 Z" fill="#000000" fill-rule="nonzero" fill-opacity="1" /><path clip-path="url(#clip000)" d="M1492.6 1115.56 Q1494.79 1111.61 1497.85 1109.74 Q1500.91 1107.86 1505.04 1107.86 Q1510.61 1107.86 1513.64 1111.77 Q1516.66 1115.66 1516.66 1122.85 L1516.66 1144.37 L1510.77 1144.37 L1510.77 1123.04 Q1510.77 1117.92 1508.96 1115.43 Q1507.14 1112.95 1503.42 1112.95 Q1498.87 1112.95 1496.23 1115.97 Q1493.59 1119 1493.59 1124.22 L1493.59 1144.37 L1487.7 1144.37 L1487.7 1123.04 Q1487.7 1117.88 1485.88 1115.43 Q1484.07 1112.95 1480.28 1112.95 Q1475.79 1112.95 1473.15 1116.01 Q1470.51 1119.03 1470.51 1124.22 L1470.51 1144.37 L1464.62 1144.37 L1464.62 1108.72 L1470.51 1108.72 L1470.51 1114.26 Q1472.51 1110.98 1475.32 1109.42 Q1478.12 1107.86 1481.97 1107.86 Q1485.85 1107.86 1488.56 1109.83 Q1491.29 1111.81 1492.6 1115.56 Z" fill="#000000" fill-rule="nonzero" fill-opacity="1" /><path clip-path="url(#clip000)" d="M1558.83 1125.08 L1558.83 1127.94 L1531.91 1127.94 Q1532.29 1133.99 1535.54 1137.17 Q1538.81 1140.32 1544.64 1140.32 Q1548.01 1140.32 1551.16 1139.5 Q1554.35 1138.67 1557.47 1137.01 L1557.47 1142.55 Q1554.31 1143.89 1551 1144.59 Q1547.69 1145.29 1544.29 1145.29 Q1535.76 1145.29 1530.76 1140.32 Q1525.8 1135.36 1525.8 1126.89 Q1525.8 1118.14 1530.51 1113.01 Q1535.25 1107.86 1543.27 1107.86 Q1550.46 1107.86 1554.63 1112.51 Q1558.83 1117.12 1558.83 1125.08 M1552.98 1123.36 Q1552.91 1118.55 1550.27 1115.69 Q1547.66 1112.82 1543.33 1112.82 Q1538.43 1112.82 1535.47 1115.59 Q1532.54 1118.36 1532.1 1123.39 L1552.98 1123.36 Z" fill="#000000" fill-rule="nonzero" fill-opacity="1" /><polyline clip-path="url(#clip000)" style="stroke:#000000; stroke-linecap:round; stroke-linejoin:round; stroke-width:4; stroke-opacity:1; fill:none" points="271.658,993.502 271.658,164.864 "/>
<polyline clip-path="url(#clip000)" style="stroke:#000000; stroke-linecap:round; stroke-linejoin:round; stroke-width:4; stroke-opacity:1; fill:none" points="271.658,970.05 290.555,970.05 "/>
<polyline clip-path="url(#clip000)" style="stroke:#000000; stroke-linecap:round; stroke-linejoin:round; stroke-width:4; stroke-opacity:1; fill:none" points="271.658,519.432 290.555,519.432 "/>
<path clip-path="url(#clip000)" d="M158.952 989.842 L166.591 989.842 L166.591 963.477 L158.281 965.143 L158.281 960.884 L166.545 959.218 L171.221 959.218 L171.221 989.842 L178.859 989.842 L178.859 993.778 L158.952 993.778 L158.952 989.842 Z" fill="#000000" fill-rule="nonzero" fill-opacity="1" /><path clip-path="url(#clip000)" d="M198.304 962.296 Q194.693 962.296 192.864 965.861 Q191.058 969.403 191.058 976.532 Q191.058 983.639 192.864 987.204 Q194.693 990.745 198.304 990.745 Q201.938 990.745 203.744 987.204 Q205.572 983.639 205.572 976.532 Q205.572 969.403 203.744 965.861 Q201.938 962.296 198.304 962.296 M198.304 958.593 Q204.114 958.593 207.169 963.199 Q210.248 967.782 210.248 976.532 Q210.248 985.259 207.169 989.866 Q204.114 994.449 198.304 994.449 Q192.494 994.449 189.415 989.866 Q186.359 985.259 186.359 976.532 Q186.359 967.782 189.415 963.199 Q192.494 958.593 198.304 958.593 Z" fill="#000000" fill-rule="nonzero" fill-opacity="1" /><path clip-path="url(#clip000)" d="M219.953 940.789 Q217.019 940.789 215.533 943.685 Q214.066 946.563 214.066 952.355 Q214.066 958.129 215.533 961.026 Q217.019 963.903 219.953 963.903 Q222.906 963.903 224.373 961.026 Q225.859 958.129 225.859 952.355 Q225.859 946.563 224.373 943.685 Q222.906 940.789 219.953 940.789 M219.953 937.779 Q224.674 937.779 227.156 941.522 Q229.658 945.246 229.658 952.355 Q229.658 959.446 227.156 963.189 Q224.674 966.913 219.953 966.913 Q215.232 966.913 212.731 963.189 Q210.248 959.446 210.248 952.355 Q210.248 945.246 212.731 941.522 Q215.232 937.779 219.953 937.779 Z" fill="#000000" fill-rule="nonzero" fill-opacity="1" /><path clip-path="url(#clip000)" d="M159.874 539.224 L167.513 539.224 L167.513 512.859 L159.202 514.525 L159.202 510.266 L167.466 508.6 L172.142 508.6 L172.142 539.224 L179.781 539.224 L179.781 543.16 L159.874 543.16 L159.874 539.224 Z" fill="#000000" fill-rule="nonzero" fill-opacity="1" /><path clip-path="url(#clip000)" d="M199.225 511.678 Q195.614 511.678 193.786 515.243 Q191.98 518.785 191.98 525.914 Q191.98 533.021 193.786 536.586 Q195.614 540.127 199.225 540.127 Q202.86 540.127 204.665 536.586 Q206.494 533.021 206.494 525.914 Q206.494 518.785 204.665 515.243 Q202.86 511.678 199.225 511.678 M199.225 507.975 Q205.036 507.975 208.091 512.581 Q211.17 517.164 211.17 525.914 Q211.17 534.641 208.091 539.248 Q205.036 543.831 199.225 543.831 Q193.415 543.831 190.337 539.248 Q187.281 534.641 187.281 525.914 Q187.281 517.164 190.337 512.581 Q193.415 507.975 199.225 507.975 Z" fill="#000000" fill-rule="nonzero" fill-opacity="1" /><path clip-path="url(#clip000)" d="M223.865 500.609 Q226.592 501.192 228.116 503.035 Q229.658 504.878 229.658 507.587 Q229.658 511.743 226.799 514.019 Q223.94 516.295 218.674 516.295 Q216.906 516.295 215.025 515.937 Q213.163 515.599 211.17 514.903 L211.17 511.235 Q212.75 512.157 214.63 512.627 Q216.511 513.097 218.561 513.097 Q222.135 513.097 223.997 511.687 Q225.877 510.276 225.877 507.587 Q225.877 505.104 224.128 503.712 Q222.398 502.302 219.295 502.302 L216.022 502.302 L216.022 499.18 L219.445 499.18 Q222.248 499.18 223.733 498.07 Q225.219 496.941 225.219 494.835 Q225.219 492.672 223.677 491.525 Q222.153 490.359 219.295 490.359 Q217.734 490.359 215.947 490.697 Q214.16 491.036 212.016 491.75 L212.016 488.365 Q214.179 487.763 216.06 487.462 Q217.959 487.161 219.633 487.161 Q223.959 487.161 226.479 489.136 Q229 491.092 229 494.44 Q229 496.772 227.664 498.39 Q226.329 499.988 223.865 500.609 Z" fill="#000000" fill-rule="nonzero" fill-opacity="1" /><path clip-path="url(#clip000)" d="M59.7884 810.943 L77.6442 810.943 L77.6442 802.858 Q77.6442 798.37 75.3207 795.92 Q72.9972 793.469 68.7004 793.469 Q64.4354 793.469 62.1119 795.92 Q59.7884 798.37 59.7884 802.858 L59.7884 810.943 M54.5049 817.372 L54.5049 802.858 Q54.5049 794.869 58.1333 790.795 Q61.7299 786.689 68.7004 786.689 Q75.7345 786.689 79.3311 790.795 Q82.9277 794.869 82.9277 802.858 L82.9277 810.943 L102.025 810.943 L102.025 817.372 L54.5049 817.372 Z" fill="#000000" fill-rule="nonzero" fill-opacity="1" /><path clip-path="url(#clip000)" d="M70.4828 766.828 Q70.4828 771.539 74.1749 774.276 Q77.8352 777.013 84.2327 777.013 Q90.6302 777.013 94.3223 774.308 Q97.9826 771.571 97.9826 766.828 Q97.9826 762.149 94.2905 759.412 Q90.5984 756.675 84.2327 756.675 Q77.8988 756.675 74.2067 759.412 Q70.4828 762.149 70.4828 766.828 M65.5175 766.828 Q65.5175 759.189 70.4828 754.829 Q75.448 750.468 84.2327 750.468 Q92.9856 750.468 97.9826 754.829 Q102.948 759.189 102.948 766.828 Q102.948 774.499 97.9826 778.859 Q92.9856 783.188 84.2327 783.188 Q75.448 783.188 70.4828 778.859 Q65.5175 774.499 65.5175 766.828 Z" fill="#000000" fill-rule="nonzero" fill-opacity="1" /><path clip-path="url(#clip000)" d="M96.6777 735.095 L115.584 735.095 L115.584 740.983 L66.3769 740.983 L66.3769 735.095 L71.7877 735.095 Q68.6049 733.249 67.0771 730.448 Q65.5175 727.615 65.5175 723.701 Q65.5175 717.208 70.6737 713.165 Q75.83 709.091 84.2327 709.091 Q92.6354 709.091 97.7917 713.165 Q102.948 717.208 102.948 723.701 Q102.948 727.615 101.42 730.448 Q99.8605 733.249 96.6777 735.095 M84.2327 715.171 Q77.7715 715.171 74.1112 717.844 Q70.4191 720.486 70.4191 725.133 Q70.4191 729.78 74.1112 732.453 Q77.7715 735.095 84.2327 735.095 Q90.6939 735.095 94.386 732.453 Q98.0463 729.78 98.0463 725.133 Q98.0463 720.486 94.386 717.844 Q90.6939 715.171 84.2327 715.171 Z" fill="#000000" fill-rule="nonzero" fill-opacity="1" /><path clip-path="url(#clip000)" d="M87.9566 699.988 L66.3769 699.988 L66.3769 694.132 L87.7338 694.132 Q92.7946 694.132 95.3409 692.159 Q97.8553 690.185 97.8553 686.238 Q97.8553 681.496 94.8316 678.759 Q91.8079 675.99 86.588 675.99 L66.3769 675.99 L66.3769 670.133 L102.025 670.133 L102.025 675.99 L96.5503 675.99 Q99.7969 678.122 101.388 680.955 Q102.948 683.756 102.948 687.48 Q102.948 693.623 99.1285 696.805 Q95.309 699.988 87.9566 699.988 M65.5175 685.252 L65.5175 685.252 Z" fill="#000000" fill-rule="nonzero" fill-opacity="1" /><path clip-path="url(#clip000)" d="M52.4997 658.07 L52.4997 652.214 L102.025 652.214 L102.025 658.07 L52.4997 658.07 Z" fill="#000000" fill-rule="nonzero" fill-opacity="1" /><path clip-path="url(#clip000)" d="M84.1054 623.759 Q84.1054 630.857 85.7286 633.594 Q87.3519 636.331 91.2668 636.331 Q94.386 636.331 96.2321 634.294 Q98.0463 632.225 98.0463 628.692 Q98.0463 623.823 94.6088 620.894 Q91.1395 617.934 85.4104 617.934 L84.1054 617.934 L84.1054 623.759 M81.6864 612.078 L102.025 612.078 L102.025 617.934 L96.614 617.934 Q99.8605 619.94 101.42 622.931 Q102.948 625.923 102.948 630.252 Q102.948 635.727 99.8923 638.973 Q96.805 642.188 91.6488 642.188 Q85.6332 642.188 82.5776 638.177 Q79.5221 634.135 79.5221 626.146 L79.5221 617.934 L78.9492 617.934 Q74.9069 617.934 72.7108 620.608 Q70.4828 623.25 70.4828 628.056 Q70.4828 631.111 71.2148 634.008 Q71.9469 636.904 73.411 639.578 L68.0002 639.578 Q66.7588 636.363 66.1541 633.339 Q65.5175 630.316 65.5175 627.451 Q65.5175 619.717 69.5279 615.897 Q73.5383 612.078 81.6864 612.078 Z" fill="#000000" fill-rule="nonzero" fill-opacity="1" /><path clip-path="url(#clip000)" d="M56.2554 594.222 L66.3769 594.222 L66.3769 582.159 L70.9284 582.159 L70.9284 594.222 L90.2801 594.222 Q94.6406 594.222 95.8819 593.044 Q97.1233 591.835 97.1233 588.175 L97.1233 582.159 L102.025 582.159 L102.025 588.175 Q102.025 594.954 99.5104 597.532 Q96.9641 600.11 90.2801 600.11 L70.9284 600.11 L70.9284 604.407 L66.3769 604.407 L66.3769 600.11 L56.2554 600.11 L56.2554 594.222 Z" fill="#000000" fill-rule="nonzero" fill-opacity="1" /><path clip-path="url(#clip000)" d="M66.3769 574.457 L66.3769 568.6 L102.025 568.6 L102.025 574.457 L66.3769 574.457 M52.4997 574.457 L52.4997 568.6 L59.9157 568.6 L59.9157 574.457 L52.4997 574.457 Z" fill="#000000" fill-rule="nonzero" fill-opacity="1" /><path clip-path="url(#clip000)" d="M70.4828 542.533 Q70.4828 547.243 74.1749 549.98 Q77.8352 552.718 84.2327 552.718 Q90.6302 552.718 94.3223 550.012 Q97.9826 547.275 97.9826 542.533 Q97.9826 537.854 94.2905 535.117 Q90.5984 532.379 84.2327 532.379 Q77.8988 532.379 74.2067 535.117 Q70.4828 537.854 70.4828 542.533 M65.5175 542.533 Q65.5175 534.894 70.4828 530.533 Q75.448 526.173 84.2327 526.173 Q92.9856 526.173 97.9826 530.533 Q102.948 534.894 102.948 542.533 Q102.948 550.203 97.9826 554.564 Q92.9856 558.892 84.2327 558.892 Q75.448 558.892 70.4828 554.564 Q65.5175 550.203 65.5175 542.533 Z" fill="#000000" fill-rule="nonzero" fill-opacity="1" /><path clip-path="url(#clip000)" d="M80.5088 486.833 L102.025 486.833 L102.025 492.689 L80.6997 492.689 Q75.639 492.689 73.1245 494.662 Q70.6101 496.636 70.6101 500.583 Q70.6101 505.325 73.6338 508.062 Q76.6575 510.8 81.8774 510.8 L102.025 510.8 L102.025 516.688 L66.3769 516.688 L66.3769 510.8 L71.9151 510.8 Q68.7004 508.699 67.109 505.866 Q65.5175 503.002 65.5175 499.278 Q65.5175 493.135 69.337 489.984 Q73.1245 486.833 80.5088 486.833 Z" fill="#000000" fill-rule="nonzero" fill-opacity="1" /><path clip-path="url(#clip000)" d="M54.5049 454.177 L54.5049 445.519 L94.2587 424.449 L54.5049 424.449 L54.5049 418.21 L102.025 418.21 L102.025 426.868 L62.271 447.938 L102.025 447.938 L102.025 454.177 L54.5049 454.177 Z" fill="#000000" fill-rule="nonzero" fill-opacity="1" /><path clip-path="url(#clip000)" d="M52.5633 391.602 Q59.8839 395.867 67.0453 397.936 Q74.2067 400.004 81.5591 400.004 Q88.9115 400.004 96.1366 397.936 Q103.33 395.835 110.619 391.602 L110.619 396.694 Q103.139 401.469 95.9138 403.856 Q88.6887 406.211 81.5591 406.211 Q74.4613 406.211 67.2681 403.856 Q60.0748 401.5 52.5633 396.694 L52.5633 391.602 Z" fill="#000000" fill-rule="nonzero" fill-opacity="1" /><path clip-path="url(#clip000)" d="M56.2554 374.446 L66.3769 374.446 L66.3769 362.383 L70.9284 362.383 L70.9284 374.446 L90.2801 374.446 Q94.6406 374.446 95.8819 373.268 Q97.1233 372.059 97.1233 368.399 L97.1233 362.383 L102.025 362.383 L102.025 368.399 Q102.025 375.178 99.5104 377.756 Q96.9641 380.334 90.2801 380.334 L70.9284 380.334 L70.9284 384.631 L66.3769 384.631 L66.3769 380.334 L56.2554 380.334 L56.2554 374.446 Z" fill="#000000" fill-rule="nonzero" fill-opacity="1" /><path clip-path="url(#clip000)" d="M52.5633 355.604 L52.5633 350.511 Q60.0748 345.737 67.2681 343.381 Q74.4613 340.994 81.5591 340.994 Q88.6887 340.994 95.9138 343.381 Q103.139 345.737 110.619 350.511 L110.619 355.604 Q103.33 351.37 96.1366 349.302 Q88.9115 347.201 81.5591 347.201 Q74.2067 347.201 67.0453 349.302 Q59.8839 351.37 52.5633 355.604 Z" fill="#000000" fill-rule="nonzero" fill-opacity="1" /><path clip-path="url(#clip000)" d="M600.47 43.6931 L600.47 65.8515 L613.594 65.8515 Q620.197 65.8515 623.357 63.1374 Q626.557 60.3828 626.557 54.752 Q626.557 49.0808 623.357 46.4072 Q620.197 43.6931 613.594 43.6931 L600.47 43.6931 M600.47 18.8205 L600.47 37.0496 L612.582 37.0496 Q618.577 37.0496 621.494 34.8216 Q624.451 32.5531 624.451 27.935 Q624.451 23.3575 621.494 21.089 Q618.577 18.8205 612.582 18.8205 L600.47 18.8205 M592.287 12.096 L613.189 12.096 Q622.547 12.096 627.611 15.9849 Q632.674 19.8737 632.674 27.0438 Q632.674 32.5936 630.082 35.8748 Q627.489 39.156 622.466 39.9662 Q628.502 41.2625 631.824 45.3944 Q635.186 49.4858 635.186 55.6432 Q635.186 63.745 629.677 68.1605 Q624.167 72.576 614 72.576 L592.287 72.576 L592.287 12.096 Z" fill="#000000" fill-rule="nonzero" fill-opacity="1" /><path clip-path="url(#clip000)" d="M648.878 27.2059 L656.332 27.2059 L656.332 72.576 L648.878 72.576 L648.878 27.2059 M648.878 9.54393 L656.332 9.54393 L656.332 18.9825 L648.878 18.9825 L648.878 9.54393 Z" fill="#000000" fill-rule="nonzero" fill-opacity="1" /><path clip-path="url(#clip000)" d="M698.218 34.1734 Q696.962 33.4443 695.463 33.1202 Q694.005 32.7556 692.223 32.7556 Q685.903 32.7556 682.5 36.8875 Q679.138 40.9789 679.138 48.6757 L679.138 72.576 L671.644 72.576 L671.644 27.2059 L679.138 27.2059 L679.138 34.2544 Q681.488 30.1225 685.255 28.1376 Q689.022 26.1121 694.41 26.1121 Q695.18 26.1121 696.111 26.2337 Q697.043 26.3147 698.177 26.5172 L698.218 34.1734 Z" fill="#000000" fill-rule="nonzero" fill-opacity="1" /><path clip-path="url(#clip000)" d="M713.409 14.324 L713.409 27.2059 L728.762 27.2059 L728.762 32.9987 L713.409 32.9987 L713.409 57.6282 Q713.409 63.1779 714.908 64.7578 Q716.447 66.3376 721.105 66.3376 L728.762 66.3376 L728.762 72.576 L721.105 72.576 Q712.477 72.576 709.196 69.3758 Q705.915 66.1351 705.915 57.6282 L705.915 32.9987 L700.446 32.9987 L700.446 27.2059 L705.915 27.2059 L705.915 14.324 L713.409 14.324 Z" fill="#000000" fill-rule="nonzero" fill-opacity="1" /><path clip-path="url(#clip000)" d="M776.279 45.1919 L776.279 72.576 L768.825 72.576 L768.825 45.4349 Q768.825 38.994 766.314 35.7938 Q763.802 32.5936 758.779 32.5936 Q752.743 32.5936 749.259 36.4419 Q745.775 40.2903 745.775 46.9338 L745.775 72.576 L738.281 72.576 L738.281 9.54393 L745.775 9.54393 L745.775 34.2544 Q748.449 30.163 752.054 28.1376 Q755.7 26.1121 760.44 26.1121 Q768.258 26.1121 772.268 30.9732 Q776.279 35.7938 776.279 45.1919 Z" fill="#000000" fill-rule="nonzero" fill-opacity="1" /><path clip-path="url(#clip000)" d="M787.378 46.5287 L809.213 46.5287 L809.213 53.1722 L787.378 53.1722 L787.378 46.5287 Z" fill="#000000" fill-rule="nonzero" fill-opacity="1" /><path clip-path="url(#clip000)" d="M850.937 34.0924 L850.937 9.54393 L858.391 9.54393 L858.391 72.576 L850.937 72.576 L850.937 65.7705 Q848.587 69.8214 844.982 71.8063 Q841.417 73.7508 836.394 73.7508 Q828.171 73.7508 822.986 67.1883 Q817.841 60.6258 817.841 49.9314 Q817.841 39.2371 822.986 32.6746 Q828.171 26.1121 836.394 26.1121 Q841.417 26.1121 844.982 28.0971 Q848.587 30.0415 850.937 34.0924 M825.538 49.9314 Q825.538 58.1548 828.9 62.8538 Q832.303 67.5124 838.217 67.5124 Q844.131 67.5124 847.534 62.8538 Q850.937 58.1548 850.937 49.9314 Q850.937 41.7081 847.534 37.0496 Q844.131 32.3505 838.217 32.3505 Q832.303 32.3505 828.9 37.0496 Q825.538 41.7081 825.538 49.9314 Z" fill="#000000" fill-rule="nonzero" fill-opacity="1" /><path clip-path="url(#clip000)" d="M912.551 48.0275 L912.551 51.6733 L878.281 51.6733 Q878.767 59.3701 882.899 63.421 Q887.071 67.4314 894.484 67.4314 Q898.778 67.4314 902.789 66.3781 Q906.839 65.3249 910.809 63.2184 L910.809 70.267 Q906.799 71.9684 902.586 72.8596 Q898.373 73.7508 894.039 73.7508 Q883.182 73.7508 876.822 67.4314 Q870.503 61.1119 870.503 50.3365 Q870.503 39.1965 876.498 32.6746 Q882.534 26.1121 892.742 26.1121 Q901.897 26.1121 907.204 32.0264 Q912.551 37.9003 912.551 48.0275 M905.098 45.84 Q905.017 39.7232 901.654 36.0774 Q898.333 32.4315 892.823 32.4315 Q886.585 32.4315 882.818 35.9558 Q879.091 39.4801 878.524 45.8805 L905.098 45.84 Z" fill="#000000" fill-rule="nonzero" fill-opacity="1" /><path clip-path="url(#clip000)" d="M945.404 49.7694 Q936.371 49.7694 932.887 51.8354 Q929.403 53.9013 929.403 58.8839 Q929.403 62.8538 931.996 65.2034 Q934.629 67.5124 939.125 67.5124 Q945.323 67.5124 949.05 63.1374 Q952.817 58.7219 952.817 51.4303 L952.817 49.7694 L945.404 49.7694 M960.271 46.6907 L960.271 72.576 L952.817 72.576 L952.817 65.6895 Q950.265 69.8214 946.457 71.8063 Q942.649 73.7508 937.14 73.7508 Q930.173 73.7508 926.041 69.8619 Q921.949 65.9325 921.949 59.3701 Q921.949 51.7138 927.053 47.825 Q932.198 43.9361 942.366 43.9361 L952.817 43.9361 L952.817 43.2069 Q952.817 38.0623 949.414 35.2672 Q946.052 32.4315 939.935 32.4315 Q936.046 32.4315 932.36 33.3632 Q928.674 34.295 925.271 36.1584 L925.271 29.2718 Q929.362 27.692 933.211 26.9223 Q937.059 26.1121 940.705 26.1121 Q950.549 26.1121 955.41 31.2163 Q960.271 36.3204 960.271 46.6907 Z" fill="#000000" fill-rule="nonzero" fill-opacity="1" /><path clip-path="url(#clip000)" d="M982.996 14.324 L982.996 27.2059 L998.349 27.2059 L998.349 32.9987 L982.996 32.9987 L982.996 57.6282 Q982.996 63.1779 984.495 64.7578 Q986.035 66.3376 990.693 66.3376 L998.349 66.3376 L998.349 72.576 L990.693 72.576 Q982.065 72.576 978.783 69.3758 Q975.502 66.1351 975.502 57.6282 L975.502 32.9987 L970.034 32.9987 L970.034 27.2059 L975.502 27.2059 L975.502 14.324 L982.996 14.324 Z" fill="#000000" fill-rule="nonzero" fill-opacity="1" /><path clip-path="url(#clip000)" d="M1045.87 45.1919 L1045.87 72.576 L1038.41 72.576 L1038.41 45.4349 Q1038.41 38.994 1035.9 35.7938 Q1033.39 32.5936 1028.37 32.5936 Q1022.33 32.5936 1018.85 36.4419 Q1015.36 40.2903 1015.36 46.9338 L1015.36 72.576 L1007.87 72.576 L1007.87 9.54393 L1015.36 9.54393 L1015.36 34.2544 Q1018.04 30.163 1021.64 28.1376 Q1025.29 26.1121 1030.03 26.1121 Q1037.85 26.1121 1041.86 30.9732 Q1045.87 35.7938 1045.87 45.1919 Z" fill="#000000" fill-rule="nonzero" fill-opacity="1" /><path clip-path="url(#clip000)" d="M1094.32 65.7705 L1094.32 89.8329 L1086.82 89.8329 L1086.82 27.2059 L1094.32 27.2059 L1094.32 34.0924 Q1096.66 30.0415 1100.23 28.0971 Q1103.83 26.1121 1108.82 26.1121 Q1117.08 26.1121 1122.23 32.6746 Q1127.41 39.2371 1127.41 49.9314 Q1127.41 60.6258 1122.23 67.1883 Q1117.08 73.7508 1108.82 73.7508 Q1103.83 73.7508 1100.23 71.8063 Q1096.66 69.8214 1094.32 65.7705 M1119.67 49.9314 Q1119.67 41.7081 1116.27 37.0496 Q1112.91 32.3505 1106.99 32.3505 Q1101.08 32.3505 1097.68 37.0496 Q1094.32 41.7081 1094.32 49.9314 Q1094.32 58.1548 1097.68 62.8538 Q1101.08 67.5124 1106.99 67.5124 Q1112.91 67.5124 1116.27 62.8538 Q1119.67 58.1548 1119.67 49.9314 Z" fill="#000000" fill-rule="nonzero" fill-opacity="1" /><path clip-path="url(#clip000)" d="M1166.06 34.1734 Q1164.8 33.4443 1163.3 33.1202 Q1161.84 32.7556 1160.06 32.7556 Q1153.74 32.7556 1150.34 36.8875 Q1146.98 40.9789 1146.98 48.6757 L1146.98 72.576 L1139.48 72.576 L1139.48 27.2059 L1146.98 27.2059 L1146.98 34.2544 Q1149.33 30.1225 1153.09 28.1376 Q1156.86 26.1121 1162.25 26.1121 Q1163.02 26.1121 1163.95 26.2337 Q1164.88 26.3147 1166.02 26.5172 L1166.06 34.1734 Z" fill="#000000" fill-rule="nonzero" fill-opacity="1" /><path clip-path="url(#clip000)" d="M1189.63 32.4315 Q1183.64 32.4315 1180.15 37.1306 Q1176.67 41.7891 1176.67 49.9314 Q1176.67 58.0738 1180.11 62.7728 Q1183.6 67.4314 1189.63 67.4314 Q1195.59 67.4314 1199.07 62.7323 Q1202.56 58.0333 1202.56 49.9314 Q1202.56 41.8701 1199.07 37.1711 Q1195.59 32.4315 1189.63 32.4315 M1189.63 26.1121 Q1199.36 26.1121 1204.9 32.4315 Q1210.45 38.7509 1210.45 49.9314 Q1210.45 61.0714 1204.9 67.4314 Q1199.36 73.7508 1189.63 73.7508 Q1179.87 73.7508 1174.32 67.4314 Q1168.81 61.0714 1168.81 49.9314 Q1168.81 38.7509 1174.32 32.4315 Q1179.87 26.1121 1189.63 26.1121 Z" fill="#000000" fill-rule="nonzero" fill-opacity="1" /><path clip-path="url(#clip000)" d="M1255.46 28.9478 L1255.46 35.9153 Q1252.3 34.1734 1249.1 33.3227 Q1245.94 32.4315 1242.7 32.4315 Q1235.45 32.4315 1231.44 37.0496 Q1227.43 41.6271 1227.43 49.9314 Q1227.43 58.2358 1231.44 62.8538 Q1235.45 67.4314 1242.7 67.4314 Q1245.94 67.4314 1249.1 66.5807 Q1252.3 65.6895 1255.46 63.9476 L1255.46 70.8341 Q1252.34 72.2924 1248.98 73.0216 Q1245.66 73.7508 1241.89 73.7508 Q1231.64 73.7508 1225.61 67.3098 Q1219.57 60.8689 1219.57 49.9314 Q1219.57 38.832 1225.65 32.472 Q1231.76 26.1121 1242.38 26.1121 Q1245.82 26.1121 1249.1 26.8413 Q1252.38 27.5299 1255.46 28.9478 Z" fill="#000000" fill-rule="nonzero" fill-opacity="1" /><path clip-path="url(#clip000)" d="M1307.23 48.0275 L1307.23 51.6733 L1272.96 51.6733 Q1273.45 59.3701 1277.58 63.421 Q1281.75 67.4314 1289.16 67.4314 Q1293.46 67.4314 1297.47 66.3781 Q1301.52 65.3249 1305.49 63.2184 L1305.49 70.267 Q1301.48 71.9684 1297.27 72.8596 Q1293.05 73.7508 1288.72 73.7508 Q1277.86 73.7508 1271.5 67.4314 Q1265.18 61.1119 1265.18 50.3365 Q1265.18 39.1965 1271.18 32.6746 Q1277.21 26.1121 1287.42 26.1121 Q1296.58 26.1121 1301.88 32.0264 Q1307.23 37.9003 1307.23 48.0275 M1299.78 45.84 Q1299.7 39.7232 1296.33 36.0774 Q1293.01 32.4315 1287.5 32.4315 Q1281.26 32.4315 1277.5 35.9558 Q1273.77 39.4801 1273.2 45.8805 L1299.78 45.84 Z" fill="#000000" fill-rule="nonzero" fill-opacity="1" /><path clip-path="url(#clip000)" d="M1348.39 28.5427 L1348.39 35.5912 Q1345.23 33.9709 1341.83 33.1607 Q1338.42 32.3505 1334.78 32.3505 Q1329.23 32.3505 1326.43 34.0519 Q1323.68 35.7533 1323.68 39.156 Q1323.68 41.7486 1325.66 43.2475 Q1327.65 44.7058 1333.64 46.0426 L1336.19 46.6097 Q1344.13 48.3111 1347.46 51.4303 Q1350.82 54.509 1350.82 60.0587 Q1350.82 66.3781 1345.8 70.0644 Q1340.81 73.7508 1332.06 73.7508 Q1328.42 73.7508 1324.45 73.0216 Q1320.52 72.3329 1316.14 70.9151 L1316.14 63.2184 Q1320.27 65.3654 1324.29 66.4591 Q1328.3 67.5124 1332.22 67.5124 Q1337.49 67.5124 1340.33 65.73 Q1343.16 63.9071 1343.16 60.6258 Q1343.16 57.5877 1341.1 55.9673 Q1339.07 54.3469 1332.14 52.8481 L1329.55 52.2405 Q1322.62 50.7821 1319.55 47.7845 Q1316.47 44.7463 1316.47 39.4801 Q1316.47 33.0797 1321 29.5959 Q1325.54 26.1121 1333.89 26.1121 Q1338.02 26.1121 1341.66 26.7198 Q1345.31 27.3274 1348.39 28.5427 Z" fill="#000000" fill-rule="nonzero" fill-opacity="1" /><path clip-path="url(#clip000)" d="M1391.61 28.5427 L1391.61 35.5912 Q1388.45 33.9709 1385.05 33.1607 Q1381.65 32.3505 1378 32.3505 Q1372.45 32.3505 1369.66 34.0519 Q1366.9 35.7533 1366.9 39.156 Q1366.9 41.7486 1368.89 43.2475 Q1370.87 44.7058 1376.87 46.0426 L1379.42 46.6097 Q1387.36 48.3111 1390.68 51.4303 Q1394.04 54.509 1394.04 60.0587 Q1394.04 66.3781 1389.02 70.0644 Q1384.04 73.7508 1375.29 73.7508 Q1371.64 73.7508 1367.67 73.0216 Q1363.74 72.3329 1359.37 70.9151 L1359.37 63.2184 Q1363.5 65.3654 1367.51 66.4591 Q1371.52 67.5124 1375.45 67.5124 Q1380.71 67.5124 1383.55 65.73 Q1386.39 63.9071 1386.39 60.6258 Q1386.39 57.5877 1384.32 55.9673 Q1382.29 54.3469 1375.37 52.8481 L1372.77 52.2405 Q1365.85 50.7821 1362.77 47.7845 Q1359.69 44.7463 1359.69 39.4801 Q1359.69 33.0797 1364.23 29.5959 Q1368.76 26.1121 1377.11 26.1121 Q1381.24 26.1121 1384.89 26.7198 Q1388.53 27.3274 1391.61 28.5427 Z" fill="#000000" fill-rule="nonzero" fill-opacity="1" /><path clip-path="url(#clip000)" d="M1455.25 9.54393 L1455.25 15.7418 L1448.12 15.7418 Q1444.11 15.7418 1442.53 17.3622 Q1440.99 18.9825 1440.99 23.1955 L1440.99 27.2059 L1453.27 27.2059 L1453.27 32.9987 L1440.99 32.9987 L1440.99 72.576 L1433.5 72.576 L1433.5 32.9987 L1426.37 32.9987 L1426.37 27.2059 L1433.5 27.2059 L1433.5 24.0462 Q1433.5 16.471 1437.02 13.0277 Q1440.55 9.54393 1448.2 9.54393 L1455.25 9.54393 Z" fill="#000000" fill-rule="nonzero" fill-opacity="1" /><path clip-path="url(#clip000)" d="M1479.07 32.4315 Q1473.07 32.4315 1469.59 37.1306 Q1466.11 41.7891 1466.11 49.9314 Q1466.11 58.0738 1469.55 62.7728 Q1473.03 67.4314 1479.07 67.4314 Q1485.02 67.4314 1488.51 62.7323 Q1491.99 58.0333 1491.99 49.9314 Q1491.99 41.8701 1488.51 37.1711 Q1485.02 32.4315 1479.07 32.4315 M1479.07 26.1121 Q1488.79 26.1121 1494.34 32.4315 Q1499.89 38.7509 1499.89 49.9314 Q1499.89 61.0714 1494.34 67.4314 Q1488.79 73.7508 1479.07 73.7508 Q1469.31 73.7508 1463.76 67.4314 Q1458.25 61.0714 1458.25 49.9314 Q1458.25 38.7509 1463.76 32.4315 Q1469.31 26.1121 1479.07 26.1121 Z" fill="#000000" fill-rule="nonzero" fill-opacity="1" /><path clip-path="url(#clip000)" d="M1538.54 34.1734 Q1537.28 33.4443 1535.78 33.1202 Q1534.32 32.7556 1532.54 32.7556 Q1526.22 32.7556 1522.82 36.8875 Q1519.46 40.9789 1519.46 48.6757 L1519.46 72.576 L1511.96 72.576 L1511.96 27.2059 L1519.46 27.2059 L1519.46 34.2544 Q1521.81 30.1225 1525.57 28.1376 Q1529.34 26.1121 1534.73 26.1121 Q1535.5 26.1121 1536.43 26.2337 Q1537.36 26.3147 1538.5 26.5172 L1538.54 34.1734 Z" fill="#000000" fill-rule="nonzero" fill-opacity="1" /><path clip-path="url(#clip000)" d="M1567.38 27.2059 L1575.28 27.2059 L1589.46 65.2844 L1603.64 27.2059 L1611.53 27.2059 L1594.52 72.576 L1584.39 72.576 L1567.38 27.2059 Z" fill="#000000" fill-rule="nonzero" fill-opacity="1" /><path clip-path="url(#clip000)" d="M1642.44 49.7694 Q1633.41 49.7694 1629.93 51.8354 Q1626.44 53.9013 1626.44 58.8839 Q1626.44 62.8538 1629.03 65.2034 Q1631.67 67.5124 1636.16 67.5124 Q1642.36 67.5124 1646.09 63.1374 Q1649.86 58.7219 1649.86 51.4303 L1649.86 49.7694 L1642.44 49.7694 M1657.31 46.6907 L1657.31 72.576 L1649.86 72.576 L1649.86 65.6895 Q1647.3 69.8214 1643.5 71.8063 Q1639.69 73.7508 1634.18 73.7508 Q1627.21 73.7508 1623.08 69.8619 Q1618.99 65.9325 1618.99 59.3701 Q1618.99 51.7138 1624.09 47.825 Q1629.24 43.9361 1639.4 43.9361 L1649.86 43.9361 L1649.86 43.2069 Q1649.86 38.0623 1646.45 35.2672 Q1643.09 32.4315 1636.97 32.4315 Q1633.09 32.4315 1629.4 33.3632 Q1625.71 34.295 1622.31 36.1584 L1622.31 29.2718 Q1626.4 27.692 1630.25 26.9223 Q1634.1 26.1121 1637.74 26.1121 Q1647.59 26.1121 1652.45 31.2163 Q1657.31 36.3204 1657.31 46.6907 Z" fill="#000000" fill-rule="nonzero" fill-opacity="1" /><path clip-path="url(#clip000)" d="M1698.95 34.1734 Q1697.7 33.4443 1696.2 33.1202 Q1694.74 32.7556 1692.96 32.7556 Q1686.64 32.7556 1683.24 36.8875 Q1679.87 40.9789 1679.87 48.6757 L1679.87 72.576 L1672.38 72.576 L1672.38 27.2059 L1679.87 27.2059 L1679.87 34.2544 Q1682.22 30.1225 1685.99 28.1376 Q1689.76 26.1121 1695.15 26.1121 Q1695.92 26.1121 1696.85 26.2337 Q1697.78 26.3147 1698.91 26.5172 L1698.95 34.1734 Z" fill="#000000" fill-rule="nonzero" fill-opacity="1" /><path clip-path="url(#clip000)" d="M1725.65 76.7889 Q1722.49 84.8907 1719.49 87.3618 Q1716.49 89.8329 1711.47 89.8329 L1705.52 89.8329 L1705.52 83.5945 L1709.89 83.5945 Q1712.97 83.5945 1714.67 82.1361 Q1716.37 80.6778 1718.44 75.2496 L1719.77 71.8468 L1701.42 27.2059 L1709.32 27.2059 L1723.5 62.6918 L1737.68 27.2059 L1745.58 27.2059 L1725.65 76.7889 Z" fill="#000000" fill-rule="nonzero" fill-opacity="1" /><path clip-path="url(#clip000)" d="M1755.87 27.2059 L1763.32 27.2059 L1763.32 72.576 L1755.87 72.576 L1755.87 27.2059 M1755.87 9.54393 L1763.32 9.54393 L1763.32 18.9825 L1755.87 18.9825 L1755.87 9.54393 Z" fill="#000000" fill-rule="nonzero" fill-opacity="1" /><path clip-path="url(#clip000)" d="M1816.63 45.1919 L1816.63 72.576 L1809.18 72.576 L1809.18 45.4349 Q1809.18 38.994 1806.67 35.7938 Q1804.16 32.5936 1799.13 32.5936 Q1793.1 32.5936 1789.61 36.4419 Q1786.13 40.2903 1786.13 46.9338 L1786.13 72.576 L1778.63 72.576 L1778.63 27.2059 L1786.13 27.2059 L1786.13 34.2544 Q1788.8 30.163 1792.41 28.1376 Q1796.05 26.1121 1800.79 26.1121 Q1808.61 26.1121 1812.62 30.9732 Q1816.63 35.7938 1816.63 45.1919 Z" fill="#000000" fill-rule="nonzero" fill-opacity="1" /><path clip-path="url(#clip000)" d="M1861.35 49.3643 Q1861.35 41.2625 1857.99 36.8065 Q1854.67 32.3505 1848.63 32.3505 Q1842.64 32.3505 1839.28 36.8065 Q1835.95 41.2625 1835.95 49.3643 Q1835.95 57.4256 1839.28 61.8816 Q1842.64 66.3376 1848.63 66.3376 Q1854.67 66.3376 1857.99 61.8816 Q1861.35 57.4256 1861.35 49.3643 M1868.81 66.9452 Q1868.81 78.5308 1863.66 84.1616 Q1858.52 89.8329 1847.9 89.8329 Q1843.98 89.8329 1840.49 89.2252 Q1837.01 88.6581 1833.73 87.4428 L1833.73 80.1917 Q1837.01 81.9741 1840.21 82.8248 Q1843.41 83.6755 1846.73 83.6755 Q1854.06 83.6755 1857.71 79.8271 Q1861.35 76.0193 1861.35 68.282 L1861.35 64.5957 Q1859.04 68.6061 1855.44 70.5911 Q1851.83 72.576 1846.81 72.576 Q1838.47 72.576 1833.36 66.2161 Q1828.26 59.8562 1828.26 49.3643 Q1828.26 38.832 1833.36 32.472 Q1838.47 26.1121 1846.81 26.1121 Q1851.83 26.1121 1855.44 28.0971 Q1859.04 30.082 1861.35 34.0924 L1861.35 27.2059 L1868.81 27.2059 L1868.81 66.9452 Z" fill="#000000" fill-rule="nonzero" fill-opacity="1" /><path clip-path="url(#clip000)" d="M1928.4 16.633 L1949.34 72.576 L1941.44 72.576 L1928.72 39.0345 L1913.08 72.576 L1905.18 72.576 L1925.07 29.0693 L1922.08 21.0485 Q1920.17 15.9444 1915.84 15.9444 L1911.95 15.9444 L1911.95 9.54393 L1916.69 9.62495 Q1925.84 9.74648 1928.4 16.633 Z" fill="#000000" fill-rule="nonzero" fill-opacity="1" /><path clip-path="url(#clip000)" d="M2030.28 9.62495 Q2024.85 18.942 2022.22 28.0566 Q2019.58 37.1711 2019.58 46.5287 Q2019.58 55.8863 2022.22 65.0818 Q2024.89 74.2369 2030.28 83.5134 L2023.8 83.5134 Q2017.72 73.9938 2014.68 64.7983 Q2011.68 55.6027 2011.68 46.5287 Q2011.68 37.4952 2014.68 28.3401 Q2017.68 19.1851 2023.8 9.62495 L2030.28 9.62495 Z" fill="#000000" fill-rule="nonzero" fill-opacity="1" /><path clip-path="url(#clip000)" d="M2043.97 89.8329 L2043.97 27.2059 L2051.42 27.2059 L2051.42 55.4002 Q2051.42 61.274 2054.22 64.2716 Q2057.01 67.2693 2062.48 67.2693 Q2068.48 67.2693 2071.47 63.8666 Q2074.51 60.4638 2074.51 53.6583 L2074.51 27.2059 L2081.97 27.2059 L2081.97 62.1247 Q2081.97 64.5552 2082.65 65.73 Q2083.38 66.8642 2084.88 66.8642 Q2085.25 66.8642 2085.9 66.6617 Q2086.54 66.4186 2087.68 65.9325 L2087.68 71.9279 Q2086.02 72.8596 2084.52 73.3052 Q2083.06 73.7508 2081.64 73.7508 Q2078.85 73.7508 2077.19 72.1709 Q2075.53 70.5911 2074.92 67.3503 Q2072.89 70.5505 2069.94 72.1709 Q2067.02 73.7508 2063.05 73.7508 Q2058.92 73.7508 2056 72.1709 Q2053.12 70.5911 2051.42 67.4314 L2051.42 89.8329 L2043.97 89.8329 Z" fill="#000000" fill-rule="nonzero" fill-opacity="1" /><path clip-path="url(#clip000)" d="M2124.87 34.9026 L2176.8 34.9026 L2176.8 41.7081 L2124.87 41.7081 L2124.87 34.9026 M2124.87 51.4303 L2176.8 51.4303 L2176.8 58.3168 L2124.87 58.3168 L2124.87 51.4303 Z" fill="#000000" fill-rule="nonzero" fill-opacity="1" /><path clip-path="url(#clip000)" d="M2238.33 17.4837 Q2232.01 17.4837 2228.81 23.7221 Q2225.65 29.92 2225.65 42.3968 Q2225.65 54.833 2228.81 61.0714 Q2232.01 67.2693 2238.33 67.2693 Q2244.69 67.2693 2247.85 61.0714 Q2251.05 54.833 2251.05 42.3968 Q2251.05 29.92 2247.85 23.7221 Q2244.69 17.4837 2238.33 17.4837 M2238.33 11.0023 Q2248.5 11.0023 2253.85 19.0636 Q2259.23 27.0843 2259.23 42.3968 Q2259.23 57.6687 2253.85 65.73 Q2248.5 73.7508 2238.33 73.7508 Q2228.16 73.7508 2222.78 65.73 Q2217.43 57.6687 2217.43 42.3968 Q2217.43 27.0843 2222.78 19.0636 Q2228.16 11.0023 2238.33 11.0023 Z" fill="#000000" fill-rule="nonzero" fill-opacity="1" /><path clip-path="url(#clip000)" d="M2273.61 62.2867 L2282.16 62.2867 L2282.16 72.576 L2273.61 72.576 L2273.61 62.2867 Z" fill="#000000" fill-rule="nonzero" fill-opacity="1" /><path clip-path="url(#clip000)" d="M2322.47 19.2256 L2301.81 51.5113 L2322.47 51.5113 L2322.47 19.2256 M2320.32 12.096 L2330.61 12.096 L2330.61 51.5113 L2339.24 51.5113 L2339.24 58.3168 L2330.61 58.3168 L2330.61 72.576 L2322.47 72.576 L2322.47 58.3168 L2295.17 58.3168 L2295.17 50.4176 L2320.32 12.096 Z" fill="#000000" fill-rule="nonzero" fill-opacity="1" /><path clip-path="url(#clip000)" d="M2350.54 9.62495 L2357.02 9.62495 Q2363.1 19.1851 2366.1 28.3401 Q2369.13 37.4952 2369.13 46.5287 Q2369.13 55.6027 2366.1 64.7983 Q2363.1 73.9938 2357.02 83.5134 L2350.54 83.5134 Q2355.93 74.2369 2358.56 65.0818 Q2361.24 55.8863 2361.24 46.5287 Q2361.24 37.1711 2358.56 28.0566 Q2355.93 18.942 2350.54 9.62495 Z" fill="#000000" fill-rule="nonzero" fill-opacity="1" /><polyline clip-path="url(#clip001)" style="stroke:#009af9; stroke-linecap:round; stroke-linejoin:round; stroke-width:8; stroke-opacity:1; fill:none" points="340.095,819.844 354.352,819.844 368.61,802.729 382.868,826.717 397.126,813.627 411.383,807.95 425.641,813.627 439.899,802.729 454.156,793.394 468.414,793.394 482.672,813.627 496.929,807.95 511.187,807.95 525.445,802.729 539.703,807.95 553.96,819.844 568.218,802.729 582.476,802.729 596.733,797.895 610.991,807.95 625.249,813.627 639.506,789.184 653.764,774.627 668.022,797.895 682.28,781.501 696.537,802.729 710.795,797.895 725.053,793.394 739.31,793.394 753.568,793.394 767.826,789.184 782.083,785.229 796.341,777.974 810.599,777.974 824.857,777.974 839.114,777.974 853.372,777.974 867.63,781.501 881.887,789.184 896.145,785.229 910.403,781.501 924.66,785.229 938.918,789.184 953.176,789.184 967.434,807.95 981.691,807.95 995.949,807.95 1010.21,807.95 1024.46,793.394 1038.72,781.501 1052.98,774.627 1067.24,768.41 1081.5,774.627 1095.75,785.229 1110.01,797.895 1124.27,802.729 1138.53,802.729 1152.78,813.627 1167.04,807.95 1181.3,834.4 1195.56,819.844 1209.81,819.844 1224.07,819.844 1238.33,843.111 1252.59,834.4 1266.85,843.111 1281.1,865.06 1295.36,865.06 1309.62,865.06 1323.88,865.06 1338.13,853.167 1352.39,826.717 1366.65,826.717 1380.91,834.4 1395.16,834.4 1409.42,843.111 1423.68,865.06 1437.94,865.06 1452.2,898.384 1466.45,898.384 1480.71,924.833 1494.97,970.05 1509.23,970.05 "/>
<polyline clip-path="url(#clip001)" style="stroke:#e26f46; stroke-linecap:round; stroke-linejoin:round; stroke-width:8; stroke-opacity:1; fill:none" points="340.095,819.844 354.352,807.95 368.61,793.394 382.868,807.95 397.126,813.627 411.383,834.4 425.641,853.167 439.899,865.06 454.156,853.167 468.414,834.4 482.672,843.111 496.929,826.717 511.187,826.717 525.445,834.4 539.703,843.111 553.96,843.111 568.218,853.167 582.476,879.617 596.733,879.617 610.991,898.384 625.249,898.384 639.506,924.833 653.764,924.833 668.022,924.833 682.28,970.05 696.537,970.05 710.795,970.05 "/>
<polyline clip-path="url(#clip001)" style="stroke:#3da44d; stroke-linecap:round; stroke-linejoin:round; stroke-width:8; stroke-opacity:1; fill:none" points="340.095,819.844 354.352,826.717 368.61,843.111 382.868,879.617 397.126,879.617 411.383,853.167 425.641,879.617 439.899,924.833 454.156,924.833 468.414,970.05 482.672,970.05 496.929,898.384 511.187,924.833 525.445,924.833 539.703,924.833 553.96,924.833 568.218,924.833 582.476,924.833 596.733,970.05 "/>
<polyline clip-path="url(#clip001)" style="stroke:#c271d2; stroke-linecap:round; stroke-linejoin:round; stroke-width:8; stroke-opacity:1; fill:none" points="340.095,819.844 354.352,807.95 368.61,777.974 382.868,771.445 397.126,765.51 411.383,757.512 425.641,748.177 439.899,748.177 454.156,750.389 468.414,736.284 482.672,724.693 496.929,723.194 511.187,712.296 525.445,708.637 539.703,701.883 553.96,699.778 568.218,701.883 582.476,705.173 596.733,704.057 610.991,698.751 625.249,697.74 639.506,687.54 653.764,677.977 668.022,672.301 682.28,669.638 696.537,672.301 710.795,663.421 725.053,652.523 739.31,644.951 753.568,641.471 767.826,635.408 782.083,635.408 796.341,634.26 810.599,626.746 824.857,624.748 839.114,622.493 853.372,622.177 867.63,617.32 881.887,609.087 896.145,600.408 910.403,594.582 924.66,588.477 938.918,581.192 953.176,580.025 967.434,577.913 981.691,571.667 995.949,568.408 1010.21,563.742 1024.46,560.357 1038.72,557.606 1052.98,551.25 1067.24,548.749 1081.5,546.34 1095.75,540.861 1110.01,537.163 1124.27,533.42 1138.53,530.341 1152.78,527.034 1167.04,521.554 1181.3,519.563 1195.56,518.396 1209.81,516.623 1224.07,514.05 1238.33,508.745 1252.59,504.98 1266.85,500.584 1281.1,497.716 1295.36,495.554 1309.62,490.131 1323.88,486.804 1338.13,483.488 1352.39,480.117 1366.65,477.699 1380.91,473.89 1395.16,471.626 1409.42,467.88 1423.68,464.985 1437.94,460.685 1452.2,456.85 1466.45,455.002 1480.71,451.548 1494.97,447.613 1509.23,445.732 1523.48,442.987 1537.74,439.047 1552,435.583 1566.26,432.174 1580.51,429.77 1594.77,426.331 1609.03,422.678 1623.29,419.345 1637.55,415.032 1651.8,411.21 1666.06,407.295 1680.32,404.458 1694.58,401.428 1708.83,399.025 1723.09,394.798 1737.35,391.439 1751.61,388.754 1765.86,386.081 1780.12,382.884 1794.38,379.384 1808.64,376.106 1822.9,372.937 1837.15,369.737 1851.41,366.411 1865.67,362.453 1879.93,358.984 1894.18,355.95 1908.44,352.853 1922.7,349.775 1936.96,346.854 1951.21,343.094 1965.47,339.597 1979.73,335.909 1993.99,332.634 2008.25,328.916 2022.5,325.664 2036.76,322.66 2051.02,319.377 2065.28,315.973 2079.53,312.394 2093.79,309.198 2108.05,305.576 2122.31,302.495 2136.57,298.86 2150.82,294.988 2165.08,291.429 2179.34,288.255 2193.6,285.341 2207.85,282.002 2222.11,278.86 2236.37,275.719 2250.63,272.67 2264.88,269.499 2279.14,266.316 2293.4,263.141 2307.66,260.104 2321.92,256.852 2336.17,253.322 2350.43,249.886 2364.69,246.59 2378.95,243.193 2393.2,239.735 2407.46,236.658 2421.72,233.418 2435.98,230.371 2450.23,227.007 2464.49,223.999 2478.75,220.726 2493.01,217.412 2507.27,214.22 2521.52,211.072 2535.78,207.715 2550.04,204.294 2564.3,201.029 2578.55,197.824 2592.81,194.661 2607.07,191.608 2621.33,188.316 "/>
<path clip-path="url(#clip000)" d="M352.261 451.686 L791.988 451.686 L791.988 192.486 L352.261 192.486  Z" fill="#000000" fill-rule="evenodd" fill-opacity="0"/>
<polyline clip-path="url(#clip000)" style="stroke:#000000; stroke-linecap:round; stroke-linejoin:round; stroke-width:4; stroke-opacity:1; fill:none" points="352.261,451.686 791.988,451.686 791.988,192.486 352.261,192.486 352.261,451.686 "/>
<polyline clip-path="url(#clip000)" style="stroke:#009af9; stroke-linecap:round; stroke-linejoin:round; stroke-width:8; stroke-opacity:1; fill:none" points="379.129,244.326 540.336,244.326 "/>
<path clip-path="url(#clip000)" d="M580.468 229.638 L592.435 261.606 L587.922 261.606 L580.653 242.439 L571.718 261.606 L567.204 261.606 L578.57 236.745 L576.857 232.161 Q575.769 229.245 573.292 229.245 L571.07 229.245 L571.07 225.587 L573.778 225.633 Q579.01 225.703 580.468 229.638 Z" fill="#000000" fill-rule="nonzero" fill-opacity="1" /><path clip-path="url(#clip000)" d="M613.94 240.078 L643.616 240.078 L643.616 243.967 L613.94 243.967 L613.94 240.078 M613.94 249.522 L643.616 249.522 L643.616 253.457 L613.94 253.457 L613.94 249.522 Z" fill="#000000" fill-rule="nonzero" fill-opacity="1" /><path clip-path="url(#clip000)" d="M678.778 230.124 Q675.166 230.124 673.338 233.689 Q671.532 237.231 671.532 244.36 Q671.532 251.467 673.338 255.031 Q675.166 258.573 678.778 258.573 Q682.412 258.573 684.217 255.031 Q686.046 251.467 686.046 244.36 Q686.046 237.231 684.217 233.689 Q682.412 230.124 678.778 230.124 M678.778 226.421 Q684.588 226.421 687.643 231.027 Q690.722 235.61 690.722 244.36 Q690.722 253.087 687.643 257.693 Q684.588 262.277 678.778 262.277 Q672.967 262.277 669.889 257.693 Q666.833 253.087 666.833 244.36 Q666.833 235.61 669.889 231.027 Q672.967 226.421 678.778 226.421 Z" fill="#000000" fill-rule="nonzero" fill-opacity="1" /><path clip-path="url(#clip000)" d="M698.939 255.726 L703.824 255.726 L703.824 261.606 L698.939 261.606 L698.939 255.726 Z" fill="#000000" fill-rule="nonzero" fill-opacity="1" /><path clip-path="url(#clip000)" d="M728.175 242.971 Q731.532 243.689 733.407 245.957 Q735.305 248.226 735.305 251.559 Q735.305 256.675 731.787 259.476 Q728.268 262.277 721.787 262.277 Q719.611 262.277 717.296 261.837 Q715.004 261.42 712.551 260.564 L712.551 256.05 Q714.495 257.184 716.81 257.763 Q719.125 258.342 721.648 258.342 Q726.046 258.342 728.337 256.606 Q730.652 254.869 730.652 251.559 Q730.652 248.504 728.5 246.791 Q726.37 245.055 722.55 245.055 L718.523 245.055 L718.523 241.212 L722.736 241.212 Q726.185 241.212 728.013 239.846 Q729.842 238.457 729.842 235.865 Q729.842 233.203 727.944 231.791 Q726.069 230.356 722.55 230.356 Q720.629 230.356 718.43 230.772 Q716.231 231.189 713.592 232.069 L713.592 227.902 Q716.254 227.161 718.569 226.791 Q720.907 226.421 722.967 226.421 Q728.291 226.421 731.393 228.851 Q734.495 231.258 734.495 235.379 Q734.495 238.249 732.851 240.24 Q731.208 242.207 728.175 242.971 Z" fill="#000000" fill-rule="nonzero" fill-opacity="1" /><path clip-path="url(#clip000)" d="M744.217 227.046 L762.573 227.046 L762.573 230.981 L748.499 230.981 L748.499 239.453 Q749.518 239.106 750.536 238.944 Q751.555 238.758 752.573 238.758 Q758.36 238.758 761.74 241.93 Q765.12 245.101 765.12 250.518 Q765.12 256.096 761.647 259.198 Q758.175 262.277 751.856 262.277 Q749.68 262.277 747.411 261.906 Q745.166 261.536 742.759 260.795 L742.759 256.096 Q744.842 257.231 747.064 257.786 Q749.286 258.342 751.763 258.342 Q755.768 258.342 758.106 256.235 Q760.444 254.129 760.444 250.518 Q760.444 246.907 758.106 244.8 Q755.768 242.694 751.763 242.694 Q749.888 242.694 748.013 243.11 Q746.161 243.527 744.217 244.407 L744.217 227.046 Z" fill="#000000" fill-rule="nonzero" fill-opacity="1" /><polyline clip-path="url(#clip000)" style="stroke:#e26f46; stroke-linecap:round; stroke-linejoin:round; stroke-width:8; stroke-opacity:1; fill:none" points="379.129,296.166 540.336,296.166 "/>
<path clip-path="url(#clip000)" d="M580.468 281.478 L592.435 313.446 L587.922 313.446 L580.653 294.279 L571.718 313.446 L567.204 313.446 L578.57 288.585 L576.857 284.001 Q575.769 281.085 573.292 281.085 L571.07 281.085 L571.07 277.427 L573.778 277.473 Q579.01 277.543 580.468 281.478 Z" fill="#000000" fill-rule="nonzero" fill-opacity="1" /><path clip-path="url(#clip000)" d="M613.94 291.918 L643.616 291.918 L643.616 295.807 L613.94 295.807 L613.94 291.918 M613.94 301.362 L643.616 301.362 L643.616 305.297 L613.94 305.297 L613.94 301.362 Z" fill="#000000" fill-rule="nonzero" fill-opacity="1" /><path clip-path="url(#clip000)" d="M678.778 281.964 Q675.166 281.964 673.338 285.529 Q671.532 289.071 671.532 296.2 Q671.532 303.307 673.338 306.871 Q675.166 310.413 678.778 310.413 Q682.412 310.413 684.217 306.871 Q686.046 303.307 686.046 296.2 Q686.046 289.071 684.217 285.529 Q682.412 281.964 678.778 281.964 M678.778 278.261 Q684.588 278.261 687.643 282.867 Q690.722 287.45 690.722 296.2 Q690.722 304.927 687.643 309.533 Q684.588 314.117 678.778 314.117 Q672.967 314.117 669.889 309.533 Q666.833 304.927 666.833 296.2 Q666.833 287.45 669.889 282.867 Q672.967 278.261 678.778 278.261 Z" fill="#000000" fill-rule="nonzero" fill-opacity="1" /><path clip-path="url(#clip000)" d="M698.939 307.566 L703.824 307.566 L703.824 313.446 L698.939 313.446 L698.939 307.566 Z" fill="#000000" fill-rule="nonzero" fill-opacity="1" /><path clip-path="url(#clip000)" d="M726.856 282.96 L715.051 301.409 L726.856 301.409 L726.856 282.96 M725.629 278.886 L731.509 278.886 L731.509 301.409 L736.439 301.409 L736.439 305.297 L731.509 305.297 L731.509 313.446 L726.856 313.446 L726.856 305.297 L711.254 305.297 L711.254 300.784 L725.629 278.886 Z" fill="#000000" fill-rule="nonzero" fill-opacity="1" /><polyline clip-path="url(#clip000)" style="stroke:#3da44d; stroke-linecap:round; stroke-linejoin:round; stroke-width:8; stroke-opacity:1; fill:none" points="379.129,348.006 540.336,348.006 "/>
<path clip-path="url(#clip000)" d="M580.468 333.318 L592.435 365.286 L587.922 365.286 L580.653 346.119 L571.718 365.286 L567.204 365.286 L578.57 340.425 L576.857 335.841 Q575.769 332.925 573.292 332.925 L571.07 332.925 L571.07 329.267 L573.778 329.313 Q579.01 329.383 580.468 333.318 Z" fill="#000000" fill-rule="nonzero" fill-opacity="1" /><path clip-path="url(#clip000)" d="M613.94 343.758 L643.616 343.758 L643.616 347.647 L613.94 347.647 L613.94 343.758 M613.94 353.202 L643.616 353.202 L643.616 357.137 L613.94 357.137 L613.94 353.202 Z" fill="#000000" fill-rule="nonzero" fill-opacity="1" /><path clip-path="url(#clip000)" d="M678.778 333.804 Q675.166 333.804 673.338 337.369 Q671.532 340.911 671.532 348.04 Q671.532 355.147 673.338 358.711 Q675.166 362.253 678.778 362.253 Q682.412 362.253 684.217 358.711 Q686.046 355.147 686.046 348.04 Q686.046 340.911 684.217 337.369 Q682.412 333.804 678.778 333.804 M678.778 330.101 Q684.588 330.101 687.643 334.707 Q690.722 339.29 690.722 348.04 Q690.722 356.767 687.643 361.373 Q684.588 365.957 678.778 365.957 Q672.967 365.957 669.889 361.373 Q666.833 356.767 666.833 348.04 Q666.833 339.29 669.889 334.707 Q672.967 330.101 678.778 330.101 Z" fill="#000000" fill-rule="nonzero" fill-opacity="1" /><path clip-path="url(#clip000)" d="M698.939 359.406 L703.824 359.406 L703.824 365.286 L698.939 365.286 L698.939 359.406 Z" fill="#000000" fill-rule="nonzero" fill-opacity="1" /><path clip-path="url(#clip000)" d="M726.856 334.8 L715.051 353.249 L726.856 353.249 L726.856 334.8 M725.629 330.726 L731.509 330.726 L731.509 353.249 L736.439 353.249 L736.439 357.137 L731.509 357.137 L731.509 365.286 L726.856 365.286 L726.856 357.137 L711.254 357.137 L711.254 352.624 L725.629 330.726 Z" fill="#000000" fill-rule="nonzero" fill-opacity="1" /><path clip-path="url(#clip000)" d="M744.217 330.726 L762.573 330.726 L762.573 334.661 L748.499 334.661 L748.499 343.133 Q749.518 342.786 750.536 342.624 Q751.555 342.438 752.573 342.438 Q758.36 342.438 761.74 345.61 Q765.12 348.781 765.12 354.198 Q765.12 359.776 761.647 362.878 Q758.175 365.957 751.856 365.957 Q749.68 365.957 747.411 365.586 Q745.166 365.216 742.759 364.475 L742.759 359.776 Q744.842 360.911 747.064 361.466 Q749.286 362.022 751.763 362.022 Q755.768 362.022 758.106 359.915 Q760.444 357.809 760.444 354.198 Q760.444 350.587 758.106 348.48 Q755.768 346.374 751.763 346.374 Q749.888 346.374 748.013 346.79 Q746.161 347.207 744.217 348.087 L744.217 330.726 Z" fill="#000000" fill-rule="nonzero" fill-opacity="1" /><polyline clip-path="url(#clip000)" style="stroke:#c271d2; stroke-linecap:round; stroke-linejoin:round; stroke-width:8; stroke-opacity:1; fill:none" points="379.129,399.846 540.336,399.846 "/>
<path clip-path="url(#clip000)" d="M580.468 385.158 L592.435 417.126 L587.922 417.126 L580.653 397.959 L571.718 417.126 L567.204 417.126 L578.57 392.265 L576.857 387.681 Q575.769 384.765 573.292 384.765 L571.07 384.765 L571.07 381.107 L573.778 381.153 Q579.01 381.223 580.468 385.158 Z" fill="#000000" fill-rule="nonzero" fill-opacity="1" /><path clip-path="url(#clip000)" d="M613.94 395.598 L643.616 395.598 L643.616 399.487 L613.94 399.487 L613.94 395.598 M613.94 405.042 L643.616 405.042 L643.616 408.977 L613.94 408.977 L613.94 405.042 Z" fill="#000000" fill-rule="nonzero" fill-opacity="1" /><path clip-path="url(#clip000)" d="M678.778 385.644 Q675.166 385.644 673.338 389.209 Q671.532 392.751 671.532 399.88 Q671.532 406.987 673.338 410.551 Q675.166 414.093 678.778 414.093 Q682.412 414.093 684.217 410.551 Q686.046 406.987 686.046 399.88 Q686.046 392.751 684.217 389.209 Q682.412 385.644 678.778 385.644 M678.778 381.941 Q684.588 381.941 687.643 386.547 Q690.722 391.13 690.722 399.88 Q690.722 408.607 687.643 413.213 Q684.588 417.797 678.778 417.797 Q672.967 417.797 669.889 413.213 Q666.833 408.607 666.833 399.88 Q666.833 391.13 669.889 386.547 Q672.967 381.941 678.778 381.941 Z" fill="#000000" fill-rule="nonzero" fill-opacity="1" /><path clip-path="url(#clip000)" d="M698.939 411.246 L703.824 411.246 L703.824 417.126 L698.939 417.126 L698.939 411.246 Z" fill="#000000" fill-rule="nonzero" fill-opacity="1" /><path clip-path="url(#clip000)" d="M714.055 382.566 L732.412 382.566 L732.412 386.501 L718.338 386.501 L718.338 394.973 Q719.356 394.626 720.375 394.464 Q721.393 394.278 722.412 394.278 Q728.199 394.278 731.578 397.45 Q734.958 400.621 734.958 406.038 Q734.958 411.616 731.486 414.718 Q728.013 417.797 721.694 417.797 Q719.518 417.797 717.25 417.426 Q715.004 417.056 712.597 416.315 L712.597 411.616 Q714.68 412.751 716.902 413.306 Q719.125 413.862 721.601 413.862 Q725.606 413.862 727.944 411.755 Q730.282 409.649 730.282 406.038 Q730.282 402.427 727.944 400.32 Q725.606 398.214 721.601 398.214 Q719.726 398.214 717.851 398.63 Q716 399.047 714.055 399.927 L714.055 382.566 Z" fill="#000000" fill-rule="nonzero" fill-opacity="1" /></svg>
