<?xml version="1.0" encoding="utf-8"?>
<svg xmlns="http://www.w3.org/2000/svg" xmlns:xlink="http://www.w3.org/1999/xlink" width="700" height="280" viewBox="0 0 2800 1120">
<defs>
  <clipPath id="clip850">
    <rect x="0" y="0" width="2800" height="1120"/>
  </clipPath>
</defs>
<defs>
  <clipPath id="clip851">
    <rect x="297" y="162" width="2393" height="757"/>
  </clipPath>
</defs>
<polyline clip-path="url(#clip850)" style="stroke:#000000; stroke-linecap:round; stroke-linejoin:round; stroke-width:4; stroke-opacity:1; fill:none" points="297.526,917.82 2689.76,917.82 "/>
<polyline clip-path="url(#clip850)" style="stroke:#000000; stroke-linecap:round; stroke-linejoin:round; stroke-width:4; stroke-opacity:1; fill:none" points="365.231,917.82 365.231,898.922 "/>
<polyline clip-path="url(#clip850)" style="stroke:#000000; stroke-linecap:round; stroke-linejoin:round; stroke-width:4; stroke-opacity:1; fill:none" points="929.438,917.82 929.438,898.922 "/>
<polyline clip-path="url(#clip850)" style="stroke:#000000; stroke-linecap:round; stroke-linejoin:round; stroke-width:4; stroke-opacity:1; fill:none" points="1493.64,917.82 1493.64,898.922 "/>
<polyline clip-path="url(#clip850)" style="stroke:#000000; stroke-linecap:round; stroke-linejoin:round; stroke-width:4; stroke-opacity:1; fill:none" points="2057.85,917.82 2057.85,898.922 "/>
<polyline clip-path="url(#clip850)" style="stroke:#000000; stroke-linecap:round; stroke-linejoin:round; stroke-width:4; stroke-opacity:1; fill:none" points="2622.06,917.82 2622.06,898.922 "/>
<path clip-path="url(#clip850)" d="M365.231 951.938 Q361.62 951.938 359.791 955.503 Q357.986 959.045 357.986 966.174 Q357.986 973.281 359.791 976.846 Q361.62 980.387 365.231 980.387 Q368.865 980.387 370.671 976.846 Q372.499 973.281 372.499 966.174 Q372.499 959.045 370.671 955.503 Q368.865 951.938 365.231 951.938 M365.231 948.235 Q371.041 948.235 374.097 952.841 Q377.175 957.424 377.175 966.174 Q377.175 974.901 374.097 979.508 Q371.041 984.091 365.231 984.091 Q359.421 984.091 356.342 979.508 Q353.287 974.901 353.287 966.174 Q353.287 957.424 356.342 952.841 Q359.421 948.235 365.231 948.235 Z" fill="#000000" fill-rule="nonzero" fill-opacity="1" /><path clip-path="url(#clip850)" d="M893.13 979.485 L909.45 979.485 L909.45 983.42 L887.505 983.42 L887.505 979.485 Q890.167 976.73 894.751 972.1 Q899.357 967.448 900.538 966.105 Q902.783 963.582 903.663 961.846 Q904.565 960.087 904.565 958.397 Q904.565 955.642 902.621 953.906 Q900.7 952.17 897.598 952.17 Q895.399 952.17 892.945 952.934 Q890.515 953.698 887.737 955.249 L887.737 950.526 Q890.561 949.392 893.015 948.813 Q895.468 948.235 897.505 948.235 Q902.876 948.235 906.07 950.92 Q909.264 953.605 909.264 958.096 Q909.264 960.225 908.454 962.147 Q907.667 964.045 905.561 966.637 Q904.982 967.309 901.88 970.526 Q898.778 973.721 893.13 979.485 Z" fill="#000000" fill-rule="nonzero" fill-opacity="1" /><path clip-path="url(#clip850)" d="M919.311 948.86 L937.667 948.86 L937.667 952.795 L923.593 952.795 L923.593 961.267 Q924.612 960.92 925.63 960.758 Q926.649 960.573 927.667 960.573 Q933.454 960.573 936.834 963.744 Q940.213 966.915 940.213 972.332 Q940.213 977.91 936.741 981.012 Q933.269 984.091 926.95 984.091 Q924.774 984.091 922.505 983.721 Q920.26 983.35 917.852 982.61 L917.852 977.91 Q919.936 979.045 922.158 979.6 Q924.38 980.156 926.857 980.156 Q930.862 980.156 933.2 978.049 Q935.537 975.943 935.537 972.332 Q935.537 968.721 933.2 966.614 Q930.862 964.508 926.857 964.508 Q924.982 964.508 923.107 964.924 Q921.255 965.341 919.311 966.221 L919.311 948.86 Z" fill="#000000" fill-rule="nonzero" fill-opacity="1" /><path clip-path="url(#clip850)" d="M959.426 951.938 Q955.815 951.938 953.986 955.503 Q952.181 959.045 952.181 966.174 Q952.181 973.281 953.986 976.846 Q955.815 980.387 959.426 980.387 Q963.06 980.387 964.866 976.846 Q966.695 973.281 966.695 966.174 Q966.695 959.045 964.866 955.503 Q963.06 951.938 959.426 951.938 M959.426 948.235 Q965.236 948.235 968.292 952.841 Q971.371 957.424 971.371 966.174 Q971.371 974.901 968.292 979.508 Q965.236 984.091 959.426 984.091 Q953.616 984.091 950.537 979.508 Q947.482 974.901 947.482 966.174 Q947.482 957.424 950.537 952.841 Q953.616 948.235 959.426 948.235 Z" fill="#000000" fill-rule="nonzero" fill-opacity="1" /><path clip-path="url(#clip850)" d="M1453.26 948.86 L1471.62 948.86 L1471.62 952.795 L1457.55 952.795 L1457.55 961.267 Q1458.56 960.92 1459.58 960.758 Q1460.6 960.573 1461.62 960.573 Q1467.41 960.573 1470.79 963.744 Q1474.17 966.915 1474.17 972.332 Q1474.17 977.91 1470.69 981.012 Q1467.22 984.091 1460.9 984.091 Q1458.73 984.091 1456.46 983.721 Q1454.21 983.35 1451.8 982.61 L1451.8 977.91 Q1453.89 979.045 1456.11 979.6 Q1458.33 980.156 1460.81 980.156 Q1464.81 980.156 1467.15 978.049 Q1469.49 975.943 1469.49 972.332 Q1469.49 968.721 1467.15 966.614 Q1464.81 964.508 1460.81 964.508 Q1458.93 964.508 1457.06 964.924 Q1455.21 965.341 1453.26 966.221 L1453.26 948.86 Z" fill="#000000" fill-rule="nonzero" fill-opacity="1" /><path clip-path="url(#clip850)" d="M1493.38 951.938 Q1489.77 951.938 1487.94 955.503 Q1486.13 959.045 1486.13 966.174 Q1486.13 973.281 1487.94 976.846 Q1489.77 980.387 1493.38 980.387 Q1497.01 980.387 1498.82 976.846 Q1500.65 973.281 1500.65 966.174 Q1500.65 959.045 1498.82 955.503 Q1497.01 951.938 1493.38 951.938 M1493.38 948.235 Q1499.19 948.235 1502.24 952.841 Q1505.32 957.424 1505.32 966.174 Q1505.32 974.901 1502.24 979.508 Q1499.19 984.091 1493.38 984.091 Q1487.57 984.091 1484.49 979.508 Q1481.43 974.901 1481.43 966.174 Q1481.43 957.424 1484.49 952.841 Q1487.57 948.235 1493.38 948.235 Z" fill="#000000" fill-rule="nonzero" fill-opacity="1" /><path clip-path="url(#clip850)" d="M1523.54 951.938 Q1519.93 951.938 1518.1 955.503 Q1516.3 959.045 1516.3 966.174 Q1516.3 973.281 1518.1 976.846 Q1519.93 980.387 1523.54 980.387 Q1527.17 980.387 1528.98 976.846 Q1530.81 973.281 1530.81 966.174 Q1530.81 959.045 1528.98 955.503 Q1527.17 951.938 1523.54 951.938 M1523.54 948.235 Q1529.35 948.235 1532.41 952.841 Q1535.49 957.424 1535.49 966.174 Q1535.49 974.901 1532.41 979.508 Q1529.35 984.091 1523.54 984.091 Q1517.73 984.091 1514.65 979.508 Q1511.6 974.901 1511.6 966.174 Q1511.6 957.424 1514.65 952.841 Q1517.73 948.235 1523.54 948.235 Z" fill="#000000" fill-rule="nonzero" fill-opacity="1" /><path clip-path="url(#clip850)" d="M2016.13 948.86 L2038.35 948.86 L2038.35 950.85 L2025.8 983.42 L2020.92 983.42 L2032.72 952.795 L2016.13 952.795 L2016.13 948.86 Z" fill="#000000" fill-rule="nonzero" fill-opacity="1" /><path clip-path="url(#clip850)" d="M2047.52 948.86 L2065.87 948.86 L2065.87 952.795 L2051.8 952.795 L2051.8 961.267 Q2052.82 960.92 2053.84 960.758 Q2054.85 960.573 2055.87 960.573 Q2061.66 960.573 2065.04 963.744 Q2068.42 966.915 2068.42 972.332 Q2068.42 977.91 2064.95 981.012 Q2061.47 984.091 2055.16 984.091 Q2052.98 984.091 2050.71 983.721 Q2048.47 983.35 2046.06 982.61 L2046.06 977.91 Q2048.14 979.045 2050.36 979.6 Q2052.59 980.156 2055.06 980.156 Q2059.07 980.156 2061.41 978.049 Q2063.74 975.943 2063.74 972.332 Q2063.74 968.721 2061.41 966.614 Q2059.07 964.508 2055.06 964.508 Q2053.19 964.508 2051.31 964.924 Q2049.46 965.341 2047.52 966.221 L2047.52 948.86 Z" fill="#000000" fill-rule="nonzero" fill-opacity="1" /><path clip-path="url(#clip850)" d="M2087.63 951.938 Q2084.02 951.938 2082.19 955.503 Q2080.39 959.045 2080.39 966.174 Q2080.39 973.281 2082.19 976.846 Q2084.02 980.387 2087.63 980.387 Q2091.27 980.387 2093.07 976.846 Q2094.9 973.281 2094.9 966.174 Q2094.9 959.045 2093.07 955.503 Q2091.27 951.938 2087.63 951.938 M2087.63 948.235 Q2093.44 948.235 2096.5 952.841 Q2099.58 957.424 2099.58 966.174 Q2099.58 974.901 2096.5 979.508 Q2093.44 984.091 2087.63 984.091 Q2081.82 984.091 2078.74 979.508 Q2075.69 974.901 2075.69 966.174 Q2075.69 957.424 2078.74 952.841 Q2081.82 948.235 2087.63 948.235 Z" fill="#000000" fill-rule="nonzero" fill-opacity="1" /><path clip-path="url(#clip850)" d="M2566.58 979.485 L2574.22 979.485 L2574.22 953.119 L2565.91 954.786 L2565.91 950.526 L2574.18 948.86 L2578.85 948.86 L2578.85 979.485 L2586.49 979.485 L2586.49 983.42 L2566.58 983.42 L2566.58 979.485 Z" fill="#000000" fill-rule="nonzero" fill-opacity="1" /><path clip-path="url(#clip850)" d="M2605.94 951.938 Q2602.33 951.938 2600.5 955.503 Q2598.69 959.045 2598.69 966.174 Q2598.69 973.281 2600.5 976.846 Q2602.33 980.387 2605.94 980.387 Q2609.57 980.387 2611.38 976.846 Q2613.2 973.281 2613.2 966.174 Q2613.2 959.045 2611.38 955.503 Q2609.57 951.938 2605.94 951.938 M2605.94 948.235 Q2611.75 948.235 2614.8 952.841 Q2617.88 957.424 2617.88 966.174 Q2617.88 974.901 2614.8 979.508 Q2611.75 984.091 2605.94 984.091 Q2600.13 984.091 2597.05 979.508 Q2593.99 974.901 2593.99 966.174 Q2593.99 957.424 2597.05 952.841 Q2600.13 948.235 2605.94 948.235 Z" fill="#000000" fill-rule="nonzero" fill-opacity="1" /><path clip-path="url(#clip850)" d="M2636.1 951.938 Q2632.49 951.938 2630.66 955.503 Q2628.85 959.045 2628.85 966.174 Q2628.85 973.281 2630.66 976.846 Q2632.49 980.387 2636.1 980.387 Q2639.73 980.387 2641.54 976.846 Q2643.37 973.281 2643.37 966.174 Q2643.37 959.045 2641.54 955.503 Q2639.73 951.938 2636.1 951.938 M2636.1 948.235 Q2641.91 948.235 2644.96 952.841 Q2648.04 957.424 2648.04 966.174 Q2648.04 974.901 2644.96 979.508 Q2641.91 984.091 2636.1 984.091 Q2630.29 984.091 2627.21 979.508 Q2624.15 974.901 2624.15 966.174 Q2624.15 957.424 2627.21 952.841 Q2630.29 948.235 2636.1 948.235 Z" fill="#000000" fill-rule="nonzero" fill-opacity="1" /><path clip-path="url(#clip850)" d="M2666.26 951.938 Q2662.65 951.938 2660.82 955.503 Q2659.01 959.045 2659.01 966.174 Q2659.01 973.281 2660.82 976.846 Q2662.65 980.387 2666.26 980.387 Q2669.89 980.387 2671.7 976.846 Q2673.53 973.281 2673.53 966.174 Q2673.53 959.045 2671.7 955.503 Q2669.89 951.938 2666.26 951.938 M2666.26 948.235 Q2672.07 948.235 2675.13 952.841 Q2678.2 957.424 2678.2 966.174 Q2678.2 974.901 2675.13 979.508 Q2672.07 984.091 2666.26 984.091 Q2660.45 984.091 2657.37 979.508 Q2654.32 974.901 2654.32 966.174 Q2654.32 957.424 2657.37 952.841 Q2660.45 948.235 2666.26 948.235 Z" fill="#000000" fill-rule="nonzero" fill-opacity="1" /><path clip-path="url(#clip850)" d="M1415.52 1021.16 L1455.72 1021.16 L1455.72 1026.57 L1438.85 1026.57 L1438.85 1068.68 L1432.39 1068.68 L1432.39 1026.57 L1415.52 1026.57 L1415.52 1021.16 Z" fill="#000000" fill-rule="nonzero" fill-opacity="1" /><path clip-path="url(#clip850)" d="M1459.67 1033.04 L1465.52 1033.04 L1465.52 1068.68 L1459.67 1068.68 L1459.67 1033.04 M1459.67 1019.16 L1465.52 1019.16 L1465.52 1026.57 L1459.67 1026.57 L1459.67 1019.16 Z" fill="#000000" fill-rule="nonzero" fill-opacity="1" /><path clip-path="url(#clip850)" d="M1505.53 1039.88 Q1507.73 1035.93 1510.78 1034.05 Q1513.84 1032.18 1517.98 1032.18 Q1523.55 1032.18 1526.57 1036.09 Q1529.6 1039.97 1529.6 1047.17 L1529.6 1068.68 L1523.71 1068.68 L1523.71 1047.36 Q1523.71 1042.23 1521.89 1039.75 Q1520.08 1037.27 1516.35 1037.27 Q1511.8 1037.27 1509.16 1040.29 Q1506.52 1043.32 1506.52 1048.54 L1506.52 1068.68 L1500.63 1068.68 L1500.63 1047.36 Q1500.63 1042.2 1498.82 1039.75 Q1497 1037.27 1493.22 1037.27 Q1488.73 1037.27 1486.09 1040.32 Q1483.44 1043.35 1483.44 1048.54 L1483.44 1068.68 L1477.56 1068.68 L1477.56 1033.04 L1483.44 1033.04 L1483.44 1038.57 Q1485.45 1035.3 1488.25 1033.74 Q1491.05 1032.18 1494.9 1032.18 Q1498.79 1032.18 1501.49 1034.15 Q1504.23 1036.12 1505.53 1039.88 Z" fill="#000000" fill-rule="nonzero" fill-opacity="1" /><path clip-path="url(#clip850)" d="M1571.77 1049.4 L1571.77 1052.26 L1544.84 1052.26 Q1545.22 1058.31 1548.47 1061.49 Q1551.75 1064.64 1557.57 1064.64 Q1560.95 1064.64 1564.1 1063.81 Q1567.28 1062.99 1570.4 1061.33 L1570.4 1066.87 Q1567.25 1068.21 1563.94 1068.91 Q1560.63 1069.61 1557.22 1069.61 Q1548.69 1069.61 1543.7 1064.64 Q1538.73 1059.68 1538.73 1051.21 Q1538.73 1042.46 1543.44 1037.33 Q1548.18 1032.18 1556.2 1032.18 Q1563.4 1032.18 1567.57 1036.82 Q1571.77 1041.44 1571.77 1049.4 M1565.91 1047.68 Q1565.85 1042.87 1563.21 1040.01 Q1560.6 1037.14 1556.27 1037.14 Q1551.37 1037.14 1548.41 1039.91 Q1545.48 1042.68 1545.03 1047.71 L1565.91 1047.68 Z" fill="#000000" fill-rule="nonzero" fill-opacity="1" /><polyline clip-path="url(#clip850)" style="stroke:#000000; stroke-linecap:round; stroke-linejoin:round; stroke-width:4; stroke-opacity:1; fill:none" points="297.526,917.82 297.526,162.272 "/>
<polyline clip-path="url(#clip850)" style="stroke:#000000; stroke-linecap:round; stroke-linejoin:round; stroke-width:4; stroke-opacity:1; fill:none" points="297.526,896.436 316.424,896.436 "/>
<polyline clip-path="url(#clip850)" style="stroke:#000000; stroke-linecap:round; stroke-linejoin:round; stroke-width:4; stroke-opacity:1; fill:none" points="297.526,770.057 316.424,770.057 "/>
<polyline clip-path="url(#clip850)" style="stroke:#000000; stroke-linecap:round; stroke-linejoin:round; stroke-width:4; stroke-opacity:1; fill:none" points="297.526,643.677 316.424,643.677 "/>
<polyline clip-path="url(#clip850)" style="stroke:#000000; stroke-linecap:round; stroke-linejoin:round; stroke-width:4; stroke-opacity:1; fill:none" points="297.526,517.298 316.424,517.298 "/>
<polyline clip-path="url(#clip850)" style="stroke:#000000; stroke-linecap:round; stroke-linejoin:round; stroke-width:4; stroke-opacity:1; fill:none" points="297.526,390.918 316.424,390.918 "/>
<polyline clip-path="url(#clip850)" style="stroke:#000000; stroke-linecap:round; stroke-linejoin:round; stroke-width:4; stroke-opacity:1; fill:none" points="297.526,264.539 316.424,264.539 "/>
<path clip-path="url(#clip850)" d="M168.189 882.235 Q164.578 882.235 162.749 885.8 Q160.943 889.341 160.943 896.471 Q160.943 903.577 162.749 907.142 Q164.578 910.684 168.189 910.684 Q171.823 910.684 173.628 907.142 Q175.457 903.577 175.457 896.471 Q175.457 889.341 173.628 885.8 Q171.823 882.235 168.189 882.235 M168.189 878.531 Q173.999 878.531 177.054 883.138 Q180.133 887.721 180.133 896.471 Q180.133 905.198 177.054 909.804 Q173.999 914.388 168.189 914.388 Q162.379 914.388 159.3 909.804 Q156.244 905.198 156.244 896.471 Q156.244 887.721 159.3 883.138 Q162.379 878.531 168.189 878.531 Z" fill="#000000" fill-rule="nonzero" fill-opacity="1" /><path clip-path="url(#clip850)" d="M188.351 907.837 L193.235 907.837 L193.235 913.716 L188.351 913.716 L188.351 907.837 Z" fill="#000000" fill-rule="nonzero" fill-opacity="1" /><path clip-path="url(#clip850)" d="M213.42 882.235 Q209.809 882.235 207.98 885.8 Q206.175 889.341 206.175 896.471 Q206.175 903.577 207.98 907.142 Q209.809 910.684 213.42 910.684 Q217.054 910.684 218.86 907.142 Q220.688 903.577 220.688 896.471 Q220.688 889.341 218.86 885.8 Q217.054 882.235 213.42 882.235 M213.42 878.531 Q219.23 878.531 222.286 883.138 Q225.364 887.721 225.364 896.471 Q225.364 905.198 222.286 909.804 Q219.23 914.388 213.42 914.388 Q207.61 914.388 204.531 909.804 Q201.476 905.198 201.476 896.471 Q201.476 887.721 204.531 883.138 Q207.61 878.531 213.42 878.531 Z" fill="#000000" fill-rule="nonzero" fill-opacity="1" /><path clip-path="url(#clip850)" d="M243.582 882.235 Q239.971 882.235 238.142 885.8 Q236.336 889.341 236.336 896.471 Q236.336 903.577 238.142 907.142 Q239.971 910.684 243.582 910.684 Q247.216 910.684 249.022 907.142 Q250.85 903.577 250.85 896.471 Q250.85 889.341 249.022 885.8 Q247.216 882.235 243.582 882.235 M243.582 878.531 Q249.392 878.531 252.447 883.138 Q255.526 887.721 255.526 896.471 Q255.526 905.198 252.447 909.804 Q249.392 914.388 243.582 914.388 Q237.772 914.388 234.693 909.804 Q231.637 905.198 231.637 896.471 Q231.637 887.721 234.693 883.138 Q237.772 878.531 243.582 878.531 Z" fill="#000000" fill-rule="nonzero" fill-opacity="1" /><path clip-path="url(#clip850)" d="M169.184 755.855 Q165.573 755.855 163.744 759.42 Q161.939 762.962 161.939 770.091 Q161.939 777.198 163.744 780.763 Q165.573 784.304 169.184 784.304 Q172.818 784.304 174.624 780.763 Q176.453 777.198 176.453 770.091 Q176.453 762.962 174.624 759.42 Q172.818 755.855 169.184 755.855 M169.184 752.152 Q174.994 752.152 178.05 756.758 Q181.128 761.342 181.128 770.091 Q181.128 778.818 178.05 783.425 Q174.994 788.008 169.184 788.008 Q163.374 788.008 160.295 783.425 Q157.24 778.818 157.24 770.091 Q157.24 761.342 160.295 756.758 Q163.374 752.152 169.184 752.152 Z" fill="#000000" fill-rule="nonzero" fill-opacity="1" /><path clip-path="url(#clip850)" d="M189.346 781.457 L194.23 781.457 L194.23 787.337 L189.346 787.337 L189.346 781.457 Z" fill="#000000" fill-rule="nonzero" fill-opacity="1" /><path clip-path="url(#clip850)" d="M214.415 755.855 Q210.804 755.855 208.975 759.42 Q207.17 762.962 207.17 770.091 Q207.17 777.198 208.975 780.763 Q210.804 784.304 214.415 784.304 Q218.05 784.304 219.855 780.763 Q221.684 777.198 221.684 770.091 Q221.684 762.962 219.855 759.42 Q218.05 755.855 214.415 755.855 M214.415 752.152 Q220.225 752.152 223.281 756.758 Q226.36 761.342 226.36 770.091 Q226.36 778.818 223.281 783.425 Q220.225 788.008 214.415 788.008 Q208.605 788.008 205.526 783.425 Q202.471 778.818 202.471 770.091 Q202.471 761.342 205.526 756.758 Q208.605 752.152 214.415 752.152 Z" fill="#000000" fill-rule="nonzero" fill-opacity="1" /><path clip-path="url(#clip850)" d="M234.623 752.777 L252.98 752.777 L252.98 756.712 L238.906 756.712 L238.906 765.184 Q239.924 764.837 240.943 764.675 Q241.961 764.49 242.98 764.49 Q248.767 764.49 252.147 767.661 Q255.526 770.832 255.526 776.249 Q255.526 781.828 252.054 784.929 Q248.582 788.008 242.262 788.008 Q240.086 788.008 237.818 787.638 Q235.573 787.267 233.165 786.527 L233.165 781.828 Q235.248 782.962 237.471 783.517 Q239.693 784.073 242.17 784.073 Q246.174 784.073 248.512 781.966 Q250.85 779.86 250.85 776.249 Q250.85 772.638 248.512 770.531 Q246.174 768.425 242.17 768.425 Q240.295 768.425 238.42 768.841 Q236.568 769.258 234.623 770.138 L234.623 752.777 Z" fill="#000000" fill-rule="nonzero" fill-opacity="1" /><path clip-path="url(#clip850)" d="M168.189 629.476 Q164.578 629.476 162.749 633.041 Q160.943 636.582 160.943 643.712 Q160.943 650.818 162.749 654.383 Q164.578 657.925 168.189 657.925 Q171.823 657.925 173.628 654.383 Q175.457 650.818 175.457 643.712 Q175.457 636.582 173.628 633.041 Q171.823 629.476 168.189 629.476 M168.189 625.772 Q173.999 625.772 177.054 630.379 Q180.133 634.962 180.133 643.712 Q180.133 652.439 177.054 657.045 Q173.999 661.629 168.189 661.629 Q162.379 661.629 159.3 657.045 Q156.244 652.439 156.244 643.712 Q156.244 634.962 159.3 630.379 Q162.379 625.772 168.189 625.772 Z" fill="#000000" fill-rule="nonzero" fill-opacity="1" /><path clip-path="url(#clip850)" d="M188.351 655.078 L193.235 655.078 L193.235 660.957 L188.351 660.957 L188.351 655.078 Z" fill="#000000" fill-rule="nonzero" fill-opacity="1" /><path clip-path="url(#clip850)" d="M204.23 657.022 L211.869 657.022 L211.869 630.656 L203.559 632.323 L203.559 628.064 L211.823 626.397 L216.499 626.397 L216.499 657.022 L224.137 657.022 L224.137 660.957 L204.23 660.957 L204.23 657.022 Z" fill="#000000" fill-rule="nonzero" fill-opacity="1" /><path clip-path="url(#clip850)" d="M243.582 629.476 Q239.971 629.476 238.142 633.041 Q236.336 636.582 236.336 643.712 Q236.336 650.818 238.142 654.383 Q239.971 657.925 243.582 657.925 Q247.216 657.925 249.022 654.383 Q250.85 650.818 250.85 643.712 Q250.85 636.582 249.022 633.041 Q247.216 629.476 243.582 629.476 M243.582 625.772 Q249.392 625.772 252.447 630.379 Q255.526 634.962 255.526 643.712 Q255.526 652.439 252.447 657.045 Q249.392 661.629 243.582 661.629 Q237.772 661.629 234.693 657.045 Q231.637 652.439 231.637 643.712 Q231.637 634.962 234.693 630.379 Q237.772 625.772 243.582 625.772 Z" fill="#000000" fill-rule="nonzero" fill-opacity="1" /><path clip-path="url(#clip850)" d="M169.184 503.096 Q165.573 503.096 163.744 506.661 Q161.939 510.203 161.939 517.332 Q161.939 524.439 163.744 528.004 Q165.573 531.545 169.184 531.545 Q172.818 531.545 174.624 528.004 Q176.453 524.439 176.453 517.332 Q176.453 510.203 174.624 506.661 Q172.818 503.096 169.184 503.096 M169.184 499.393 Q174.994 499.393 178.05 503.999 Q181.128 508.582 181.128 517.332 Q181.128 526.059 178.05 530.666 Q174.994 535.249 169.184 535.249 Q163.374 535.249 160.295 530.666 Q157.24 526.059 157.24 517.332 Q157.24 508.582 160.295 503.999 Q163.374 499.393 169.184 499.393 Z" fill="#000000" fill-rule="nonzero" fill-opacity="1" /><path clip-path="url(#clip850)" d="M189.346 528.698 L194.23 528.698 L194.23 534.578 L189.346 534.578 L189.346 528.698 Z" fill="#000000" fill-rule="nonzero" fill-opacity="1" /><path clip-path="url(#clip850)" d="M205.226 530.643 L212.864 530.643 L212.864 504.277 L204.554 505.944 L204.554 501.684 L212.818 500.018 L217.494 500.018 L217.494 530.643 L225.133 530.643 L225.133 534.578 L205.226 534.578 L205.226 530.643 Z" fill="#000000" fill-rule="nonzero" fill-opacity="1" /><path clip-path="url(#clip850)" d="M234.623 500.018 L252.98 500.018 L252.98 503.953 L238.906 503.953 L238.906 512.425 Q239.924 512.078 240.943 511.916 Q241.961 511.731 242.98 511.731 Q248.767 511.731 252.147 514.902 Q255.526 518.073 255.526 523.49 Q255.526 529.068 252.054 532.17 Q248.582 535.249 242.262 535.249 Q240.086 535.249 237.818 534.879 Q235.573 534.508 233.165 533.767 L233.165 529.068 Q235.248 530.203 237.471 530.758 Q239.693 531.314 242.17 531.314 Q246.174 531.314 248.512 529.207 Q250.85 527.101 250.85 523.49 Q250.85 519.879 248.512 517.772 Q246.174 515.666 242.17 515.666 Q240.295 515.666 238.42 516.082 Q236.568 516.499 234.623 517.379 L234.623 500.018 Z" fill="#000000" fill-rule="nonzero" fill-opacity="1" /><path clip-path="url(#clip850)" d="M168.189 376.717 Q164.578 376.717 162.749 380.282 Q160.943 383.823 160.943 390.953 Q160.943 398.059 162.749 401.624 Q164.578 405.166 168.189 405.166 Q171.823 405.166 173.628 401.624 Q175.457 398.059 175.457 390.953 Q175.457 383.823 173.628 380.282 Q171.823 376.717 168.189 376.717 M168.189 373.013 Q173.999 373.013 177.054 377.62 Q180.133 382.203 180.133 390.953 Q180.133 399.68 177.054 404.286 Q173.999 408.869 168.189 408.869 Q162.379 408.869 159.3 404.286 Q156.244 399.68 156.244 390.953 Q156.244 382.203 159.3 377.62 Q162.379 373.013 168.189 373.013 Z" fill="#000000" fill-rule="nonzero" fill-opacity="1" /><path clip-path="url(#clip850)" d="M188.351 402.319 L193.235 402.319 L193.235 408.198 L188.351 408.198 L188.351 402.319 Z" fill="#000000" fill-rule="nonzero" fill-opacity="1" /><path clip-path="url(#clip850)" d="M207.448 404.263 L223.767 404.263 L223.767 408.198 L201.823 408.198 L201.823 404.263 Q204.485 401.508 209.068 396.879 Q213.675 392.226 214.855 390.883 Q217.1 388.36 217.98 386.624 Q218.883 384.865 218.883 383.175 Q218.883 380.42 216.938 378.684 Q215.017 376.948 211.915 376.948 Q209.716 376.948 207.263 377.712 Q204.832 378.476 202.054 380.027 L202.054 375.305 Q204.878 374.171 207.332 373.592 Q209.786 373.013 211.823 373.013 Q217.193 373.013 220.387 375.698 Q223.582 378.383 223.582 382.874 Q223.582 385.004 222.772 386.925 Q221.985 388.823 219.878 391.416 Q219.3 392.087 216.198 395.305 Q213.096 398.499 207.448 404.263 Z" fill="#000000" fill-rule="nonzero" fill-opacity="1" /><path clip-path="url(#clip850)" d="M243.582 376.717 Q239.971 376.717 238.142 380.282 Q236.336 383.823 236.336 390.953 Q236.336 398.059 238.142 401.624 Q239.971 405.166 243.582 405.166 Q247.216 405.166 249.022 401.624 Q250.85 398.059 250.85 390.953 Q250.85 383.823 249.022 380.282 Q247.216 376.717 243.582 376.717 M243.582 373.013 Q249.392 373.013 252.447 377.62 Q255.526 382.203 255.526 390.953 Q255.526 399.68 252.447 404.286 Q249.392 408.869 243.582 408.869 Q237.772 408.869 234.693 404.286 Q231.637 399.68 231.637 390.953 Q231.637 382.203 234.693 377.62 Q237.772 373.013 243.582 373.013 Z" fill="#000000" fill-rule="nonzero" fill-opacity="1" /><path clip-path="url(#clip850)" d="M169.184 250.337 Q165.573 250.337 163.744 253.902 Q161.939 257.444 161.939 264.573 Q161.939 271.68 163.744 275.245 Q165.573 278.786 169.184 278.786 Q172.818 278.786 174.624 275.245 Q176.453 271.68 176.453 264.573 Q176.453 257.444 174.624 253.902 Q172.818 250.337 169.184 250.337 M169.184 246.634 Q174.994 246.634 178.05 251.24 Q181.128 255.823 181.128 264.573 Q181.128 273.3 178.05 277.907 Q174.994 282.49 169.184 282.49 Q163.374 282.49 160.295 277.907 Q157.24 273.3 157.24 264.573 Q157.24 255.823 160.295 251.24 Q163.374 246.634 169.184 246.634 Z" fill="#000000" fill-rule="nonzero" fill-opacity="1" /><path clip-path="url(#clip850)" d="M189.346 275.939 L194.23 275.939 L194.23 281.819 L189.346 281.819 L189.346 275.939 Z" fill="#000000" fill-rule="nonzero" fill-opacity="1" /><path clip-path="url(#clip850)" d="M208.443 277.883 L224.762 277.883 L224.762 281.819 L202.818 281.819 L202.818 277.883 Q205.48 275.129 210.063 270.499 Q214.67 265.846 215.85 264.504 Q218.096 261.981 218.975 260.245 Q219.878 258.485 219.878 256.796 Q219.878 254.041 217.934 252.305 Q216.012 250.569 212.911 250.569 Q210.712 250.569 208.258 251.333 Q205.827 252.097 203.05 253.647 L203.05 248.925 Q205.874 247.791 208.327 247.212 Q210.781 246.634 212.818 246.634 Q218.188 246.634 221.383 249.319 Q224.577 252.004 224.577 256.495 Q224.577 258.624 223.767 260.546 Q222.98 262.444 220.874 265.036 Q220.295 265.708 217.193 268.925 Q214.091 272.12 208.443 277.883 Z" fill="#000000" fill-rule="nonzero" fill-opacity="1" /><path clip-path="url(#clip850)" d="M234.623 247.259 L252.98 247.259 L252.98 251.194 L238.906 251.194 L238.906 259.666 Q239.924 259.319 240.943 259.157 Q241.961 258.971 242.98 258.971 Q248.767 258.971 252.147 262.143 Q255.526 265.314 255.526 270.731 Q255.526 276.309 252.054 279.411 Q248.582 282.49 242.262 282.49 Q240.086 282.49 237.818 282.12 Q235.573 281.749 233.165 281.008 L233.165 276.309 Q235.248 277.444 237.471 277.999 Q239.693 278.555 242.17 278.555 Q246.174 278.555 248.512 276.448 Q250.85 274.342 250.85 270.731 Q250.85 267.12 248.512 265.013 Q246.174 262.907 242.17 262.907 Q240.295 262.907 238.42 263.323 Q236.568 263.74 234.623 264.62 L234.623 247.259 Z" fill="#000000" fill-rule="nonzero" fill-opacity="1" /><path clip-path="url(#clip850)" d="M58.8022 941.611 L82.4508 950.332 L82.4508 932.858 L58.8022 941.611 M52.4683 945.239 L52.4683 937.95 L99.9883 919.84 L99.9883 926.524 L87.798 930.853 L87.798 952.273 L99.9883 956.602 L99.9883 963.381 L52.4683 945.239 Z" fill="#000000" fill-rule="nonzero" fill-opacity="1" /><path clip-path="url(#clip850)" d="M65.709 888.648 L71.1835 888.648 Q69.8148 891.131 69.1464 893.645 Q68.4462 896.128 68.4462 898.674 Q68.4462 904.371 72.0747 907.522 Q75.6713 910.673 82.1961 910.673 Q88.721 910.673 92.3494 907.522 Q95.9461 904.371 95.9461 898.674 Q95.9461 896.128 95.2777 893.645 Q94.5774 891.131 93.2088 888.648 L98.6197 888.648 Q99.7655 891.099 100.338 893.741 Q100.911 896.35 100.911 899.311 Q100.911 907.363 95.8506 912.106 Q90.7898 916.848 82.1961 916.848 Q73.4751 916.848 68.478 912.074 Q63.481 907.268 63.481 898.929 Q63.481 896.223 64.0539 893.645 Q64.595 891.067 65.709 888.648 Z" fill="#000000" fill-rule="nonzero" fill-opacity="1" /><path clip-path="url(#clip850)" d="M54.2189 872.67 L64.3403 872.67 L64.3403 860.607 L68.8918 860.607 L68.8918 872.67 L88.2436 872.67 Q92.6041 872.67 93.8454 871.492 Q95.0867 870.283 95.0867 866.623 L95.0867 860.607 L99.9883 860.607 L99.9883 866.623 Q99.9883 873.402 97.4738 875.98 Q94.9275 878.558 88.2436 878.558 L68.8918 878.558 L68.8918 882.855 L64.3403 882.855 L64.3403 878.558 L54.2189 878.558 L54.2189 872.67 Z" fill="#000000" fill-rule="nonzero" fill-opacity="1" /><path clip-path="url(#clip850)" d="M64.3403 852.905 L64.3403 847.048 L99.9883 847.048 L99.9883 852.905 L64.3403 852.905 M50.4631 852.905 L50.4631 847.048 L57.8791 847.048 L57.8791 852.905 L50.4631 852.905 Z" fill="#000000" fill-rule="nonzero" fill-opacity="1" /><path clip-path="url(#clip850)" d="M64.3403 838.995 L64.3403 832.789 L94.2591 821.649 L64.3403 810.509 L64.3403 804.302 L99.9883 817.67 L99.9883 825.627 L64.3403 838.995 Z" fill="#000000" fill-rule="nonzero" fill-opacity="1" /><path clip-path="url(#clip850)" d="M80.7002 765.726 L83.5648 765.726 L83.5648 792.653 Q89.6122 792.271 92.795 789.025 Q95.9461 785.746 95.9461 779.922 Q95.9461 776.548 95.1185 773.397 Q94.291 770.214 92.6359 767.095 L98.1741 767.095 Q99.5109 770.246 100.211 773.556 Q100.911 776.866 100.911 780.272 Q100.911 788.802 95.9461 793.799 Q90.9808 798.764 82.5144 798.764 Q73.7616 798.764 68.6372 794.054 Q63.481 789.311 63.481 781.29 Q63.481 774.097 68.1279 769.928 Q72.7431 765.726 80.7002 765.726 M78.9815 771.583 Q74.1753 771.646 71.3108 774.288 Q68.4462 776.898 68.4462 781.227 Q68.4462 786.128 71.2153 789.088 Q73.9844 792.017 79.0133 792.462 L78.9815 771.583 Z" fill="#000000" fill-rule="nonzero" fill-opacity="1" /><path clip-path="url(#clip850)" d="M78.4722 705.761 L99.9883 705.761 L99.9883 711.618 L78.6632 711.618 Q73.6024 711.618 71.088 713.591 Q68.5735 715.564 68.5735 719.511 Q68.5735 724.254 71.5972 726.991 Q74.6209 729.728 79.8408 729.728 L99.9883 729.728 L99.9883 735.616 L64.3403 735.616 L64.3403 729.728 L69.8785 729.728 Q66.6638 727.627 65.0724 724.795 Q63.481 721.93 63.481 718.206 Q63.481 712.063 67.3004 708.912 Q71.088 705.761 78.4722 705.761 Z" fill="#000000" fill-rule="nonzero" fill-opacity="1" /><path clip-path="url(#clip850)" d="M68.4462 680.267 Q68.4462 684.977 72.1383 687.714 Q75.7986 690.452 82.1961 690.452 Q88.5937 690.452 92.2858 687.746 Q95.9461 685.009 95.9461 680.267 Q95.9461 675.588 92.2539 672.851 Q88.5618 670.113 82.1961 670.113 Q75.8623 670.113 72.1701 672.851 Q68.4462 675.588 68.4462 680.267 M63.481 680.267 Q63.481 672.628 68.4462 668.267 Q73.4115 663.907 82.1961 663.907 Q90.949 663.907 95.9461 668.267 Q100.911 672.628 100.911 680.267 Q100.911 687.937 95.9461 692.298 Q90.949 696.626 82.1961 696.626 Q73.4115 696.626 68.4462 692.298 Q63.481 687.937 63.481 680.267 Z" fill="#000000" fill-rule="nonzero" fill-opacity="1" /><path clip-path="url(#clip850)" d="M69.7512 630.741 L50.4631 630.741 L50.4631 624.885 L99.9883 624.885 L99.9883 630.741 L94.6411 630.741 Q97.8239 632.587 99.3835 635.42 Q100.911 638.221 100.911 642.168 Q100.911 648.629 95.7551 652.703 Q90.5989 656.745 82.1961 656.745 Q73.7934 656.745 68.6372 652.703 Q63.481 648.629 63.481 642.168 Q63.481 638.221 65.0406 635.42 Q66.5683 632.587 69.7512 630.741 M82.1961 650.698 Q88.6573 650.698 92.3494 648.056 Q96.0097 645.383 96.0097 640.736 Q96.0097 636.089 92.3494 633.415 Q88.6573 630.741 82.1961 630.741 Q75.7349 630.741 72.0747 633.415 Q68.3826 636.089 68.3826 640.736 Q68.3826 645.383 72.0747 648.056 Q75.7349 650.698 82.1961 650.698 Z" fill="#000000" fill-rule="nonzero" fill-opacity="1" /><path clip-path="url(#clip850)" d="M80.7002 582.33 L83.5648 582.33 L83.5648 609.257 Q89.6122 608.875 92.795 605.629 Q95.9461 602.35 95.9461 596.526 Q95.9461 593.152 95.1185 590.001 Q94.291 586.818 92.6359 583.699 L98.1741 583.699 Q99.5109 586.85 100.211 590.16 Q100.911 593.47 100.911 596.876 Q100.911 605.406 95.9461 610.403 Q90.9808 615.368 82.5144 615.368 Q73.7616 615.368 68.6372 610.658 Q63.481 605.915 63.481 597.894 Q63.481 590.701 68.1279 586.532 Q72.7431 582.33 80.7002 582.33 M78.9815 588.187 Q74.1753 588.25 71.3108 590.892 Q68.4462 593.502 68.4462 597.831 Q68.4462 602.732 71.2153 605.692 Q73.9844 608.621 79.0133 609.066 L78.9815 588.187 Z" fill="#000000" fill-rule="nonzero" fill-opacity="1" /><path clip-path="url(#clip850)" d="M65.3907 549.992 L70.9288 549.992 Q69.6557 552.475 69.0191 555.149 Q68.3826 557.822 68.3826 560.687 Q68.3826 565.047 69.7193 567.243 Q71.0561 569.408 73.7297 569.408 Q75.7668 569.408 76.9444 567.848 Q78.0903 566.289 79.1406 561.578 L79.5862 559.573 Q80.923 553.334 83.3738 550.724 Q85.7928 548.083 90.1533 548.083 Q95.1185 548.083 98.0149 552.029 Q100.911 555.944 100.911 562.819 Q100.911 565.684 100.338 568.803 Q99.7973 571.89 98.6833 575.328 L92.6359 575.328 Q94.3228 572.081 95.1822 568.93 Q96.0097 565.779 96.0097 562.692 Q96.0097 558.554 94.6093 556.326 Q93.177 554.098 90.5989 554.098 Q88.2117 554.098 86.9386 555.722 Q85.6654 557.313 84.4878 562.756 L84.0104 564.793 Q82.8645 570.235 80.5092 572.654 Q78.1221 575.073 73.9844 575.073 Q68.9555 575.073 66.2182 571.508 Q63.481 567.944 63.481 561.387 Q63.481 558.141 63.9584 555.276 Q64.4358 552.411 65.3907 549.992 Z" fill="#000000" fill-rule="nonzero" fill-opacity="1" /><path clip-path="url(#clip850)" d="M50.5267 503.968 Q57.8473 508.233 65.0087 510.302 Q72.1701 512.371 79.5225 512.371 Q86.8749 512.371 94.1 510.302 Q101.293 508.202 108.582 503.968 L108.582 509.061 Q101.102 513.835 93.8772 516.222 Q86.6521 518.578 79.5225 518.578 Q72.4248 518.578 65.2315 516.222 Q58.0383 513.867 50.5267 509.061 L50.5267 503.968 Z" fill="#000000" fill-rule="nonzero" fill-opacity="1" /><path clip-path="url(#clip850)" d="M78.4722 462.973 L99.9883 462.973 L99.9883 468.83 L78.6632 468.83 Q73.6024 468.83 71.088 470.803 Q68.5735 472.776 68.5735 476.723 Q68.5735 481.466 71.5972 484.203 Q74.6209 486.94 79.8408 486.94 L99.9883 486.94 L99.9883 492.828 L64.3403 492.828 L64.3403 486.94 L69.8785 486.94 Q66.6638 484.839 65.0724 482.007 Q63.481 479.142 63.481 475.418 Q63.481 469.275 67.3004 466.124 Q71.088 462.973 78.4722 462.973 Z" fill="#000000" fill-rule="nonzero" fill-opacity="1" /><path clip-path="url(#clip850)" d="M68.4462 437.479 Q68.4462 442.189 72.1383 444.926 Q75.7986 447.664 82.1961 447.664 Q88.5937 447.664 92.2858 444.958 Q95.9461 442.221 95.9461 437.479 Q95.9461 432.8 92.2539 430.062 Q88.5618 427.325 82.1961 427.325 Q75.8623 427.325 72.1701 430.062 Q68.4462 432.8 68.4462 437.479 M63.481 437.479 Q63.481 429.84 68.4462 425.479 Q73.4115 421.119 82.1961 421.119 Q90.949 421.119 95.9461 425.479 Q100.911 429.84 100.911 437.479 Q100.911 445.149 95.9461 449.51 Q90.949 453.838 82.1961 453.838 Q73.4115 453.838 68.4462 449.51 Q63.481 445.149 63.481 437.479 Z" fill="#000000" fill-rule="nonzero" fill-opacity="1" /><path clip-path="url(#clip850)" d="M69.8148 390.754 Q69.2419 391.741 68.9873 392.919 Q68.7008 394.064 68.7008 395.465 Q68.7008 400.43 71.9473 403.104 Q75.162 405.745 81.2094 405.745 L99.9883 405.745 L99.9883 411.634 L64.3403 411.634 L64.3403 405.745 L69.8785 405.745 Q66.632 403.899 65.0724 400.939 Q63.481 397.979 63.481 393.746 Q63.481 393.141 63.5764 392.409 Q63.6401 391.677 63.7992 390.786 L69.8148 390.754 Z" fill="#000000" fill-rule="nonzero" fill-opacity="1" /><path clip-path="url(#clip850)" d="M71.1835 358.003 Q67.2367 355.807 65.3588 352.751 Q63.481 349.695 63.481 345.558 Q63.481 339.988 67.3959 336.964 Q71.2789 333.94 78.4722 333.94 L99.9883 333.94 L99.9883 339.829 L78.6632 339.829 Q73.5388 339.829 71.0561 341.643 Q68.5735 343.457 68.5735 347.181 Q68.5735 351.732 71.5972 354.374 Q74.6209 357.016 79.8408 357.016 L99.9883 357.016 L99.9883 362.904 L78.6632 362.904 Q73.5069 362.904 71.0561 364.719 Q68.5735 366.533 68.5735 370.32 Q68.5735 374.808 71.6291 377.45 Q74.6528 380.092 79.8408 380.092 L99.9883 380.092 L99.9883 385.98 L64.3403 385.98 L64.3403 380.092 L69.8785 380.092 Q66.6002 378.086 65.0406 375.286 Q63.481 372.485 63.481 368.633 Q63.481 364.75 65.4543 362.045 Q67.4277 359.308 71.1835 358.003 Z" fill="#000000" fill-rule="nonzero" fill-opacity="1" /><path clip-path="url(#clip850)" d="M82.0688 306.059 Q82.0688 313.156 83.6921 315.894 Q85.3153 318.631 89.2302 318.631 Q92.3494 318.631 94.1955 316.594 Q96.0097 314.525 96.0097 310.992 Q96.0097 306.122 92.5722 303.194 Q89.1029 300.234 83.3738 300.234 L82.0688 300.234 L82.0688 306.059 M79.6499 294.377 L99.9883 294.377 L99.9883 300.234 L94.5774 300.234 Q97.8239 302.239 99.3835 305.231 Q100.911 308.223 100.911 312.552 Q100.911 318.026 97.8558 321.273 Q94.7684 324.487 89.6122 324.487 Q83.5966 324.487 80.541 320.477 Q77.4855 316.435 77.4855 308.446 L77.4855 300.234 L76.9126 300.234 Q72.8704 300.234 70.6742 302.907 Q68.4462 305.549 68.4462 310.355 Q68.4462 313.411 69.1783 316.307 Q69.9103 319.204 71.3744 321.877 L65.9636 321.877 Q64.7223 318.663 64.1175 315.639 Q63.481 312.615 63.481 309.751 Q63.481 302.016 67.4914 298.197 Q71.5017 294.377 79.6499 294.377 Z" fill="#000000" fill-rule="nonzero" fill-opacity="1" /><path clip-path="url(#clip850)" d="M50.4631 282.314 L50.4631 276.458 L99.9883 276.458 L99.9883 282.314 L50.4631 282.314 Z" fill="#000000" fill-rule="nonzero" fill-opacity="1" /><path clip-path="url(#clip850)" d="M64.3403 264.204 L64.3403 258.348 L99.9883 258.348 L99.9883 264.204 L64.3403 264.204 M50.4631 264.204 L50.4631 258.348 L57.8791 258.348 L57.8791 264.204 L50.4631 264.204 Z" fill="#000000" fill-rule="nonzero" fill-opacity="1" /><path clip-path="url(#clip850)" d="M64.3403 248.64 L64.3403 220.822 L69.6875 220.822 L95.3095 242.847 L95.3095 220.822 L99.9883 220.822 L99.9883 249.436 L94.6411 249.436 L69.0191 227.41 L69.0191 248.64 L64.3403 248.64 Z" fill="#000000" fill-rule="nonzero" fill-opacity="1" /><path clip-path="url(#clip850)" d="M80.7002 181.386 L83.5648 181.386 L83.5648 208.313 Q89.6122 207.931 92.795 204.685 Q95.9461 201.406 95.9461 195.582 Q95.9461 192.208 95.1185 189.057 Q94.291 185.874 92.6359 182.755 L98.1741 182.755 Q99.5109 185.906 100.211 189.216 Q100.911 192.526 100.911 195.932 Q100.911 204.462 95.9461 209.459 Q90.9808 214.424 82.5144 214.424 Q73.7616 214.424 68.6372 209.714 Q63.481 204.971 63.481 196.95 Q63.481 189.757 68.1279 185.588 Q72.7431 181.386 80.7002 181.386 M78.9815 187.243 Q74.1753 187.306 71.3108 189.948 Q68.4462 192.558 68.4462 196.887 Q68.4462 201.788 71.2153 204.748 Q73.9844 207.677 79.0133 208.122 L78.9815 187.243 Z" fill="#000000" fill-rule="nonzero" fill-opacity="1" /><path clip-path="url(#clip850)" d="M69.7512 148.316 L50.4631 148.316 L50.4631 142.46 L99.9883 142.46 L99.9883 148.316 L94.6411 148.316 Q97.8239 150.162 99.3835 152.995 Q100.911 155.796 100.911 159.743 Q100.911 166.204 95.7551 170.278 Q90.5989 174.32 82.1961 174.32 Q73.7934 174.32 68.6372 170.278 Q63.481 166.204 63.481 159.743 Q63.481 155.796 65.0406 152.995 Q66.5683 150.162 69.7512 148.316 M82.1961 168.273 Q88.6573 168.273 92.3494 165.631 Q96.0097 162.957 96.0097 158.31 Q96.0097 153.664 92.3494 150.99 Q88.6573 148.316 82.1961 148.316 Q75.7349 148.316 72.0747 150.99 Q68.3826 153.664 68.3826 158.31 Q68.3826 162.957 72.0747 165.631 Q75.7349 168.273 82.1961 168.273 Z" fill="#000000" fill-rule="nonzero" fill-opacity="1" /><path clip-path="url(#clip850)" d="M50.5267 131.32 L50.5267 126.227 Q58.0383 121.453 65.2315 119.098 Q72.4248 116.711 79.5225 116.711 Q86.6521 116.711 93.8772 119.098 Q101.102 121.453 108.582 126.227 L108.582 131.32 Q101.293 127.087 94.1 125.018 Q86.8749 122.917 79.5225 122.917 Q72.1701 122.917 65.0087 125.018 Q57.8473 127.087 50.5267 131.32 Z" fill="#000000" fill-rule="nonzero" fill-opacity="1" /><path clip-path="url(#clip850)" d="M721.482 16.7545 L721.482 25.383 Q717.35 21.5346 712.651 19.6307 Q707.992 17.7268 702.726 17.7268 Q692.356 17.7268 686.847 24.0867 Q681.337 30.4061 681.337 42.3968 Q681.337 54.3469 686.847 60.7069 Q692.356 67.0263 702.726 67.0263 Q707.992 67.0263 712.651 65.1223 Q717.35 63.2184 721.482 59.3701 L721.482 67.9175 Q717.188 70.8341 712.367 72.2924 Q707.587 73.7508 702.24 73.7508 Q688.508 73.7508 680.608 65.3654 Q672.709 56.9395 672.709 42.3968 Q672.709 27.8135 680.608 19.4281 Q688.508 11.0023 702.24 11.0023 Q707.668 11.0023 712.448 12.4606 Q717.269 13.8784 721.482 16.7545 Z" fill="#000000" fill-rule="nonzero" fill-opacity="1" /><path clip-path="url(#clip850)" d="M751.378 32.4315 Q745.382 32.4315 741.898 37.1306 Q738.415 41.7891 738.415 49.9314 Q738.415 58.0738 741.858 62.7728 Q745.342 67.4314 751.378 67.4314 Q757.332 67.4314 760.816 62.7323 Q764.3 58.0333 764.3 49.9314 Q764.3 41.8701 760.816 37.1711 Q757.332 32.4315 751.378 32.4315 M751.378 26.1121 Q761.1 26.1121 766.649 32.4315 Q772.199 38.7509 772.199 49.9314 Q772.199 61.0714 766.649 67.4314 Q761.1 73.7508 751.378 73.7508 Q741.615 73.7508 736.065 67.4314 Q730.556 61.0714 730.556 49.9314 Q730.556 38.7509 736.065 32.4315 Q741.615 26.1121 751.378 26.1121 Z" fill="#000000" fill-rule="nonzero" fill-opacity="1" /><path clip-path="url(#clip850)" d="M822.268 45.1919 L822.268 72.576 L814.815 72.576 L814.815 45.4349 Q814.815 38.994 812.303 35.7938 Q809.792 32.5936 804.768 32.5936 Q798.733 32.5936 795.249 36.4419 Q791.765 40.2903 791.765 46.9338 L791.765 72.576 L784.271 72.576 L784.271 27.2059 L791.765 27.2059 L791.765 34.2544 Q794.439 30.163 798.044 28.1376 Q801.69 26.1121 806.429 26.1121 Q814.248 26.1121 818.258 30.9732 Q822.268 35.7938 822.268 45.1919 Z" fill="#000000" fill-rule="nonzero" fill-opacity="1" /><path clip-path="url(#clip850)" d="M844.508 14.324 L844.508 27.2059 L859.861 27.2059 L859.861 32.9987 L844.508 32.9987 L844.508 57.6282 Q844.508 63.1779 846.007 64.7578 Q847.546 66.3376 852.205 66.3376 L859.861 66.3376 L859.861 72.576 L852.205 72.576 Q843.576 72.576 840.295 69.3758 Q837.014 66.1351 837.014 57.6282 L837.014 32.9987 L831.545 32.9987 L831.545 27.2059 L837.014 27.2059 L837.014 14.324 L844.508 14.324 Z" fill="#000000" fill-rule="nonzero" fill-opacity="1" /><path clip-path="url(#clip850)" d="M890.283 49.7694 Q881.25 49.7694 877.766 51.8354 Q874.282 53.9013 874.282 58.8839 Q874.282 62.8538 876.875 65.2034 Q879.508 67.5124 884.004 67.5124 Q890.202 67.5124 893.929 63.1374 Q897.696 58.7219 897.696 51.4303 L897.696 49.7694 L890.283 49.7694 M905.15 46.6907 L905.15 72.576 L897.696 72.576 L897.696 65.6895 Q895.144 69.8214 891.336 71.8063 Q887.528 73.7508 882.019 73.7508 Q875.052 73.7508 870.92 69.8619 Q866.828 65.9325 866.828 59.3701 Q866.828 51.7138 871.932 47.825 Q877.077 43.9361 887.245 43.9361 L897.696 43.9361 L897.696 43.2069 Q897.696 38.0623 894.293 35.2672 Q890.931 32.4315 884.814 32.4315 Q880.925 32.4315 877.239 33.3632 Q873.553 34.295 870.15 36.1584 L870.15 29.2718 Q874.241 27.692 878.09 26.9223 Q881.938 26.1121 885.584 26.1121 Q895.428 26.1121 900.289 31.2163 Q905.15 36.3204 905.15 46.6907 Z" fill="#000000" fill-rule="nonzero" fill-opacity="1" /><path clip-path="url(#clip850)" d="M953.153 28.9478 L953.153 35.9153 Q949.993 34.1734 946.793 33.3227 Q943.633 32.4315 940.393 32.4315 Q933.142 32.4315 929.131 37.0496 Q925.121 41.6271 925.121 49.9314 Q925.121 58.2358 929.131 62.8538 Q933.142 67.4314 940.393 67.4314 Q943.633 67.4314 946.793 66.5807 Q949.993 65.6895 953.153 63.9476 L953.153 70.8341 Q950.034 72.2924 946.672 73.0216 Q943.35 73.7508 939.583 73.7508 Q929.334 73.7508 923.298 67.3098 Q917.262 60.8689 917.262 49.9314 Q917.262 38.832 923.338 32.472 Q929.455 26.1121 940.069 26.1121 Q943.512 26.1121 946.793 26.8413 Q950.074 27.5299 953.153 28.9478 Z" fill="#000000" fill-rule="nonzero" fill-opacity="1" /><path clip-path="url(#clip850)" d="M973.489 14.324 L973.489 27.2059 L988.842 27.2059 L988.842 32.9987 L973.489 32.9987 L973.489 57.6282 Q973.489 63.1779 974.987 64.7578 Q976.527 66.3376 981.185 66.3376 L988.842 66.3376 L988.842 72.576 L981.185 72.576 Q972.557 72.576 969.276 69.3758 Q965.994 66.1351 965.994 57.6282 L965.994 32.9987 L960.526 32.9987 L960.526 27.2059 L965.994 27.2059 L965.994 14.324 L973.489 14.324 Z" fill="#000000" fill-rule="nonzero" fill-opacity="1" /><path clip-path="url(#clip850)" d="M1032.23 65.7705 L1032.23 89.8329 L1024.73 89.8329 L1024.73 27.2059 L1032.23 27.2059 L1032.23 34.0924 Q1034.58 30.0415 1038.14 28.0971 Q1041.75 26.1121 1046.73 26.1121 Q1054.99 26.1121 1060.14 32.6746 Q1065.32 39.2371 1065.32 49.9314 Q1065.32 60.6258 1060.14 67.1883 Q1054.99 73.7508 1046.73 73.7508 Q1041.75 73.7508 1038.14 71.8063 Q1034.58 69.8214 1032.23 65.7705 M1057.59 49.9314 Q1057.59 41.7081 1054.18 37.0496 Q1050.82 32.3505 1044.91 32.3505 Q1038.99 32.3505 1035.59 37.0496 Q1032.23 41.7081 1032.23 49.9314 Q1032.23 58.1548 1035.59 62.8538 Q1038.99 67.5124 1044.91 67.5124 Q1050.82 67.5124 1054.18 62.8538 Q1057.59 58.1548 1057.59 49.9314 Z" fill="#000000" fill-rule="nonzero" fill-opacity="1" /><path clip-path="url(#clip850)" d="M1103.97 34.1734 Q1102.71 33.4443 1101.21 33.1202 Q1099.76 32.7556 1097.97 32.7556 Q1091.65 32.7556 1088.25 36.8875 Q1084.89 40.9789 1084.89 48.6757 L1084.89 72.576 L1077.39 72.576 L1077.39 27.2059 L1084.89 27.2059 L1084.89 34.2544 Q1087.24 30.1225 1091.01 28.1376 Q1094.77 26.1121 1100.16 26.1121 Q1100.93 26.1121 1101.86 26.2337 Q1102.79 26.3147 1103.93 26.5172 L1103.97 34.1734 Z" fill="#000000" fill-rule="nonzero" fill-opacity="1" /><path clip-path="url(#clip850)" d="M1127.54 32.4315 Q1121.55 32.4315 1118.07 37.1306 Q1114.58 41.7891 1114.58 49.9314 Q1114.58 58.0738 1118.02 62.7728 Q1121.51 67.4314 1127.54 67.4314 Q1133.5 67.4314 1136.98 62.7323 Q1140.47 58.0333 1140.47 49.9314 Q1140.47 41.8701 1136.98 37.1711 Q1133.5 32.4315 1127.54 32.4315 M1127.54 26.1121 Q1137.27 26.1121 1142.82 32.4315 Q1148.37 38.7509 1148.37 49.9314 Q1148.37 61.0714 1142.82 67.4314 Q1137.27 73.7508 1127.54 73.7508 Q1117.78 73.7508 1112.23 67.4314 Q1106.72 61.0714 1106.72 49.9314 Q1106.72 38.7509 1112.23 32.4315 Q1117.78 26.1121 1127.54 26.1121 Z" fill="#000000" fill-rule="nonzero" fill-opacity="1" /><path clip-path="url(#clip850)" d="M1193.37 28.9478 L1193.37 35.9153 Q1190.21 34.1734 1187.01 33.3227 Q1183.85 32.4315 1180.61 32.4315 Q1173.36 32.4315 1169.35 37.0496 Q1165.34 41.6271 1165.34 49.9314 Q1165.34 58.2358 1169.35 62.8538 Q1173.36 67.4314 1180.61 67.4314 Q1183.85 67.4314 1187.01 66.5807 Q1190.21 65.6895 1193.37 63.9476 L1193.37 70.8341 Q1190.25 72.2924 1186.89 73.0216 Q1183.57 73.7508 1179.8 73.7508 Q1169.55 73.7508 1163.52 67.3098 Q1157.48 60.8689 1157.48 49.9314 Q1157.48 38.832 1163.56 32.472 Q1169.67 26.1121 1180.29 26.1121 Q1183.73 26.1121 1187.01 26.8413 Q1190.29 27.5299 1193.37 28.9478 Z" fill="#000000" fill-rule="nonzero" fill-opacity="1" /><path clip-path="url(#clip850)" d="M1245.14 48.0275 L1245.14 51.6733 L1210.87 51.6733 Q1211.36 59.3701 1215.49 63.421 Q1219.66 67.4314 1227.08 67.4314 Q1231.37 67.4314 1235.38 66.3781 Q1239.43 65.3249 1243.4 63.2184 L1243.4 70.267 Q1239.39 71.9684 1235.18 72.8596 Q1230.96 73.7508 1226.63 73.7508 Q1215.77 73.7508 1209.41 67.4314 Q1203.09 61.1119 1203.09 50.3365 Q1203.09 39.1965 1209.09 32.6746 Q1215.13 26.1121 1225.33 26.1121 Q1234.49 26.1121 1239.8 32.0264 Q1245.14 37.9003 1245.14 48.0275 M1237.69 45.84 Q1237.61 39.7232 1234.25 36.0774 Q1230.92 32.4315 1225.41 32.4315 Q1219.18 32.4315 1215.41 35.9558 Q1211.68 39.4801 1211.11 45.8805 L1237.69 45.84 Z" fill="#000000" fill-rule="nonzero" fill-opacity="1" /><path clip-path="url(#clip850)" d="M1286.3 28.5427 L1286.3 35.5912 Q1283.14 33.9709 1279.74 33.1607 Q1276.33 32.3505 1272.69 32.3505 Q1267.14 32.3505 1264.34 34.0519 Q1261.59 35.7533 1261.59 39.156 Q1261.59 41.7486 1263.57 43.2475 Q1265.56 44.7058 1271.55 46.0426 L1274.11 46.6097 Q1282.05 48.3111 1285.37 51.4303 Q1288.73 54.509 1288.73 60.0587 Q1288.73 66.3781 1283.71 70.0644 Q1278.72 73.7508 1269.97 73.7508 Q1266.33 73.7508 1262.36 73.0216 Q1258.43 72.3329 1254.05 70.9151 L1254.05 63.2184 Q1258.19 65.3654 1262.2 66.4591 Q1266.21 67.5124 1270.14 67.5124 Q1275.4 67.5124 1278.24 65.73 Q1281.07 63.9071 1281.07 60.6258 Q1281.07 57.5877 1279.01 55.9673 Q1276.98 54.3469 1270.06 52.8481 L1267.46 52.2405 Q1260.54 50.7821 1257.46 47.7845 Q1254.38 44.7463 1254.38 39.4801 Q1254.38 33.0797 1258.92 29.5959 Q1263.45 26.1121 1271.8 26.1121 Q1275.93 26.1121 1279.57 26.7198 Q1283.22 27.3274 1286.3 28.5427 Z" fill="#000000" fill-rule="nonzero" fill-opacity="1" /><path clip-path="url(#clip850)" d="M1329.52 28.5427 L1329.52 35.5912 Q1326.36 33.9709 1322.96 33.1607 Q1319.56 32.3505 1315.91 32.3505 Q1310.36 32.3505 1307.57 34.0519 Q1304.81 35.7533 1304.81 39.156 Q1304.81 41.7486 1306.8 43.2475 Q1308.78 44.7058 1314.78 46.0426 L1317.33 46.6097 Q1325.27 48.3111 1328.59 51.4303 Q1331.95 54.509 1331.95 60.0587 Q1331.95 66.3781 1326.93 70.0644 Q1321.95 73.7508 1313.2 73.7508 Q1309.55 73.7508 1305.58 73.0216 Q1301.65 72.3329 1297.28 70.9151 L1297.28 63.2184 Q1301.41 65.3654 1305.42 66.4591 Q1309.43 67.5124 1313.36 67.5124 Q1318.63 67.5124 1321.46 65.73 Q1324.3 63.9071 1324.3 60.6258 Q1324.3 57.5877 1322.23 55.9673 Q1320.21 54.3469 1313.28 52.8481 L1310.69 52.2405 Q1303.76 50.7821 1300.68 47.7845 Q1297.6 44.7463 1297.6 39.4801 Q1297.6 33.0797 1302.14 29.5959 Q1306.68 26.1121 1315.02 26.1121 Q1319.15 26.1121 1322.8 26.7198 Q1326.44 27.3274 1329.52 28.5427 Z" fill="#000000" fill-rule="nonzero" fill-opacity="1" /><path clip-path="url(#clip850)" d="M1388.1 9.62495 Q1382.67 18.942 1380.04 28.0566 Q1377.4 37.1711 1377.4 46.5287 Q1377.4 55.8863 1380.04 65.0818 Q1382.71 74.2369 1388.1 83.5134 L1381.62 83.5134 Q1375.54 73.9938 1372.5 64.7983 Q1369.51 55.6027 1369.51 46.5287 Q1369.51 37.4952 1372.5 28.3401 Q1375.5 19.1851 1381.62 9.62495 L1388.1 9.62495 Z" fill="#000000" fill-rule="nonzero" fill-opacity="1" /><path clip-path="url(#clip850)" d="M1431.48 28.5427 L1431.48 35.5912 Q1428.32 33.9709 1424.92 33.1607 Q1421.52 32.3505 1417.87 32.3505 Q1412.32 32.3505 1409.53 34.0519 Q1406.77 35.7533 1406.77 39.156 Q1406.77 41.7486 1408.76 43.2475 Q1410.74 44.7058 1416.74 46.0426 L1419.29 46.6097 Q1427.23 48.3111 1430.55 51.4303 Q1433.91 54.509 1433.91 60.0587 Q1433.91 66.3781 1428.89 70.0644 Q1423.91 73.7508 1415.16 73.7508 Q1411.51 73.7508 1407.54 73.0216 Q1403.61 72.3329 1399.24 70.9151 L1399.24 63.2184 Q1403.37 65.3654 1407.38 66.4591 Q1411.39 67.5124 1415.32 67.5124 Q1420.59 67.5124 1423.42 65.73 Q1426.26 63.9071 1426.26 60.6258 Q1426.26 57.5877 1424.19 55.9673 Q1422.17 54.3469 1415.24 52.8481 L1412.65 52.2405 Q1405.72 50.7821 1402.64 47.7845 Q1399.56 44.7463 1399.56 39.4801 Q1399.56 33.0797 1404.1 29.5959 Q1408.64 26.1121 1416.98 26.1121 Q1421.11 26.1121 1424.76 26.7198 Q1428.41 27.3274 1431.48 28.5427 Z" fill="#000000" fill-rule="nonzero" fill-opacity="1" /><path clip-path="url(#clip850)" d="M1445.01 54.671 L1445.01 27.2059 L1452.47 27.2059 L1452.47 54.3874 Q1452.47 60.8284 1454.98 64.0691 Q1457.49 67.2693 1462.51 67.2693 Q1468.55 67.2693 1472.03 63.421 Q1475.56 59.5726 1475.56 52.9291 L1475.56 27.2059 L1483.01 27.2059 L1483.01 72.576 L1475.56 72.576 L1475.56 65.6084 Q1472.84 69.7404 1469.24 71.7658 Q1465.67 73.7508 1460.93 73.7508 Q1453.12 73.7508 1449.06 68.8897 Q1445.01 64.0286 1445.01 54.671 M1463.77 26.1121 L1463.77 26.1121 Z" fill="#000000" fill-rule="nonzero" fill-opacity="1" /><path clip-path="url(#clip850)" d="M1530.93 49.9314 Q1530.93 41.7081 1527.53 37.0496 Q1524.17 32.3505 1518.25 32.3505 Q1512.34 32.3505 1508.94 37.0496 Q1505.57 41.7081 1505.57 49.9314 Q1505.57 58.1548 1508.94 62.8538 Q1512.34 67.5124 1518.25 67.5124 Q1524.17 67.5124 1527.53 62.8538 Q1530.93 58.1548 1530.93 49.9314 M1505.57 34.0924 Q1507.92 30.0415 1511.49 28.0971 Q1515.09 26.1121 1520.08 26.1121 Q1528.34 26.1121 1533.49 32.6746 Q1538.67 39.2371 1538.67 49.9314 Q1538.67 60.6258 1533.49 67.1883 Q1528.34 73.7508 1520.08 73.7508 Q1515.09 73.7508 1511.49 71.8063 Q1507.92 69.8214 1505.57 65.7705 L1505.57 72.576 L1498.08 72.576 L1498.08 9.54393 L1505.57 9.54393 L1505.57 34.0924 Z" fill="#000000" fill-rule="nonzero" fill-opacity="1" /><path clip-path="url(#clip850)" d="M1547.26 46.5287 L1569.09 46.5287 L1569.09 53.1722 L1547.26 53.1722 L1547.26 46.5287 Z" fill="#000000" fill-rule="nonzero" fill-opacity="1" /><path clip-path="url(#clip850)" d="M1613.61 28.9478 L1613.61 35.9153 Q1610.45 34.1734 1607.25 33.3227 Q1604.09 32.4315 1600.85 32.4315 Q1593.6 32.4315 1589.59 37.0496 Q1585.58 41.6271 1585.58 49.9314 Q1585.58 58.2358 1589.59 62.8538 Q1593.6 67.4314 1600.85 67.4314 Q1604.09 67.4314 1607.25 66.5807 Q1610.45 65.6895 1613.61 63.9476 L1613.61 70.8341 Q1610.49 72.2924 1607.13 73.0216 Q1603.81 73.7508 1600.04 73.7508 Q1589.79 73.7508 1583.76 67.3098 Q1577.72 60.8689 1577.72 49.9314 Q1577.72 38.832 1583.8 32.472 Q1589.91 26.1121 1600.53 26.1121 Q1603.97 26.1121 1607.25 26.8413 Q1610.53 27.5299 1613.61 28.9478 Z" fill="#000000" fill-rule="nonzero" fill-opacity="1" /><path clip-path="url(#clip850)" d="M1652.87 34.1734 Q1651.61 33.4443 1650.11 33.1202 Q1648.65 32.7556 1646.87 32.7556 Q1640.55 32.7556 1637.15 36.8875 Q1633.79 40.9789 1633.79 48.6757 L1633.79 72.576 L1626.29 72.576 L1626.29 27.2059 L1633.79 27.2059 L1633.79 34.2544 Q1636.14 30.1225 1639.9 28.1376 Q1643.67 26.1121 1649.06 26.1121 Q1649.83 26.1121 1650.76 26.2337 Q1651.69 26.3147 1652.83 26.5172 L1652.87 34.1734 Z" fill="#000000" fill-rule="nonzero" fill-opacity="1" /><path clip-path="url(#clip850)" d="M1660.68 27.2059 L1668.14 27.2059 L1668.14 72.576 L1660.68 72.576 L1660.68 27.2059 M1660.68 9.54393 L1668.14 9.54393 L1668.14 18.9825 L1660.68 18.9825 L1660.68 9.54393 Z" fill="#000000" fill-rule="nonzero" fill-opacity="1" /><path clip-path="url(#clip850)" d="M1691.11 14.324 L1691.11 27.2059 L1706.46 27.2059 L1706.46 32.9987 L1691.11 32.9987 L1691.11 57.6282 Q1691.11 63.1779 1692.61 64.7578 Q1694.14 66.3376 1698.8 66.3376 L1706.46 66.3376 L1706.46 72.576 L1698.8 72.576 Q1690.17 72.576 1686.89 69.3758 Q1683.61 66.1351 1683.61 57.6282 L1683.61 32.9987 L1678.14 32.9987 L1678.14 27.2059 L1683.61 27.2059 L1683.61 14.324 L1691.11 14.324 Z" fill="#000000" fill-rule="nonzero" fill-opacity="1" /><path clip-path="url(#clip850)" d="M1716.26 27.2059 L1723.72 27.2059 L1723.72 72.576 L1716.26 72.576 L1716.26 27.2059 M1716.26 9.54393 L1723.72 9.54393 L1723.72 18.9825 L1716.26 18.9825 L1716.26 9.54393 Z" fill="#000000" fill-rule="nonzero" fill-opacity="1" /><path clip-path="url(#clip850)" d="M1771.96 28.9478 L1771.96 35.9153 Q1768.8 34.1734 1765.6 33.3227 Q1762.44 32.4315 1759.2 32.4315 Q1751.95 32.4315 1747.94 37.0496 Q1743.93 41.6271 1743.93 49.9314 Q1743.93 58.2358 1747.94 62.8538 Q1751.95 67.4314 1759.2 67.4314 Q1762.44 67.4314 1765.6 66.5807 Q1768.8 65.6895 1771.96 63.9476 L1771.96 70.8341 Q1768.84 72.2924 1765.48 73.0216 Q1762.16 73.7508 1758.39 73.7508 Q1748.14 73.7508 1742.11 67.3098 Q1736.07 60.8689 1736.07 49.9314 Q1736.07 38.832 1742.15 32.472 Q1748.26 26.1121 1758.88 26.1121 Q1762.32 26.1121 1765.6 26.8413 Q1768.88 27.5299 1771.96 28.9478 Z" fill="#000000" fill-rule="nonzero" fill-opacity="1" /><path clip-path="url(#clip850)" d="M1805.54 49.7694 Q1796.51 49.7694 1793.03 51.8354 Q1789.54 53.9013 1789.54 58.8839 Q1789.54 62.8538 1792.14 65.2034 Q1794.77 67.5124 1799.27 67.5124 Q1805.46 67.5124 1809.19 63.1374 Q1812.96 58.7219 1812.96 51.4303 L1812.96 49.7694 L1805.54 49.7694 M1820.41 46.6907 L1820.41 72.576 L1812.96 72.576 L1812.96 65.6895 Q1810.41 69.8214 1806.6 71.8063 Q1802.79 73.7508 1797.28 73.7508 Q1790.31 73.7508 1786.18 69.8619 Q1782.09 65.9325 1782.09 59.3701 Q1782.09 51.7138 1787.19 47.825 Q1792.34 43.9361 1802.51 43.9361 L1812.96 43.9361 L1812.96 43.2069 Q1812.96 38.0623 1809.55 35.2672 Q1806.19 32.4315 1800.08 32.4315 Q1796.19 32.4315 1792.5 33.3632 Q1788.81 34.295 1785.41 36.1584 L1785.41 29.2718 Q1789.5 27.692 1793.35 26.9223 Q1797.2 26.1121 1800.85 26.1121 Q1810.69 26.1121 1815.55 31.2163 Q1820.41 36.3204 1820.41 46.6907 Z" fill="#000000" fill-rule="nonzero" fill-opacity="1" /><path clip-path="url(#clip850)" d="M1835.76 9.54393 L1843.22 9.54393 L1843.22 72.576 L1835.76 72.576 L1835.76 9.54393 Z" fill="#000000" fill-rule="nonzero" fill-opacity="1" /><path clip-path="url(#clip850)" d="M1860.72 62.2867 L1869.27 62.2867 L1869.27 72.576 L1860.72 72.576 L1860.72 62.2867 M1860.72 29.6769 L1869.27 29.6769 L1869.27 39.9662 L1860.72 39.9662 L1860.72 29.6769 Z" fill="#000000" fill-rule="nonzero" fill-opacity="1" /><path clip-path="url(#clip850)" d="M1931 16.633 L1951.94 72.576 L1944.04 72.576 L1931.32 39.0345 L1915.69 72.576 L1907.79 72.576 L1927.68 29.0693 L1924.68 21.0485 Q1922.78 15.9444 1918.44 15.9444 L1914.55 15.9444 L1914.55 9.54393 L1919.29 9.62495 Q1928.45 9.74648 1931 16.633 Z" fill="#000000" fill-rule="nonzero" fill-opacity="1" /><path clip-path="url(#clip850)" d="M1975.48 12.096 L1982.37 12.096 L1961.3 80.2727 L1954.42 80.2727 L1975.48 12.096 Z" fill="#000000" fill-rule="nonzero" fill-opacity="1" /><path clip-path="url(#clip850)" d="M1989.41 89.8329 L1989.41 27.2059 L1996.87 27.2059 L1996.87 55.4002 Q1996.87 61.274 1999.66 64.2716 Q2002.46 67.2693 2007.93 67.2693 Q2013.92 67.2693 2016.92 63.8666 Q2019.96 60.4638 2019.96 53.6583 L2019.96 27.2059 L2027.41 27.2059 L2027.41 62.1247 Q2027.41 64.5552 2028.1 65.73 Q2028.83 66.8642 2030.33 66.8642 Q2030.69 66.8642 2031.34 66.6617 Q2031.99 66.4186 2033.12 65.9325 L2033.12 71.9279 Q2031.46 72.8596 2029.96 73.3052 Q2028.51 73.7508 2027.09 73.7508 Q2024.29 73.7508 2022.63 72.1709 Q2020.97 70.5911 2020.36 67.3503 Q2018.34 70.5505 2015.38 72.1709 Q2012.46 73.7508 2008.49 73.7508 Q2004.36 73.7508 2001.45 72.1709 Q1998.57 70.5911 1996.87 67.4314 L1996.87 89.8329 L1989.41 89.8329 Z" fill="#000000" fill-rule="nonzero" fill-opacity="1" /><path clip-path="url(#clip850)" d="M2070.31 34.9026 L2122.24 34.9026 L2122.24 41.7081 L2070.31 41.7081 L2070.31 34.9026 M2070.31 51.4303 L2122.24 51.4303 L2122.24 58.3168 L2070.31 58.3168 L2070.31 51.4303 Z" fill="#000000" fill-rule="nonzero" fill-opacity="1" /><path clip-path="url(#clip850)" d="M2183.78 17.4837 Q2177.46 17.4837 2174.26 23.7221 Q2171.1 29.92 2171.1 42.3968 Q2171.1 54.833 2174.26 61.0714 Q2177.46 67.2693 2183.78 67.2693 Q2190.14 67.2693 2193.3 61.0714 Q2196.5 54.833 2196.5 42.3968 Q2196.5 29.92 2193.3 23.7221 Q2190.14 17.4837 2183.78 17.4837 M2183.78 11.0023 Q2193.95 11.0023 2199.29 19.0636 Q2204.68 27.0843 2204.68 42.3968 Q2204.68 57.6687 2199.29 65.73 Q2193.95 73.7508 2183.78 73.7508 Q2173.61 73.7508 2168.22 65.73 Q2162.87 57.6687 2162.87 42.3968 Q2162.87 27.0843 2168.22 19.0636 Q2173.61 11.0023 2183.78 11.0023 Z" fill="#000000" fill-rule="nonzero" fill-opacity="1" /><path clip-path="url(#clip850)" d="M2219.06 62.2867 L2227.61 62.2867 L2227.61 72.576 L2219.06 72.576 L2219.06 62.2867 Z" fill="#000000" fill-rule="nonzero" fill-opacity="1" /><path clip-path="url(#clip850)" d="M2245.68 71.3202 L2245.68 63.8666 Q2248.75 65.3249 2251.91 66.0946 Q2255.07 66.8642 2258.11 66.8642 Q2266.21 66.8642 2270.47 61.436 Q2274.76 55.9673 2275.37 44.8678 Q2273.02 48.3516 2269.41 50.215 Q2265.81 52.0784 2261.43 52.0784 Q2252.36 52.0784 2247.05 46.6097 Q2241.79 41.1005 2241.79 31.5808 Q2241.79 22.2638 2247.3 16.633 Q2252.8 11.0023 2261.96 11.0023 Q2272.45 11.0023 2277.96 19.0636 Q2283.51 27.0843 2283.51 42.3968 Q2283.51 56.6965 2276.71 65.2439 Q2269.94 73.7508 2258.48 73.7508 Q2255.4 73.7508 2252.24 73.1431 Q2249.08 72.5355 2245.68 71.3202 M2261.96 45.678 Q2267.47 45.678 2270.67 41.9107 Q2273.91 38.1433 2273.91 31.5808 Q2273.91 25.0589 2270.67 21.2916 Q2267.47 17.4837 2261.96 17.4837 Q2256.45 17.4837 2253.21 21.2916 Q2250.01 25.0589 2250.01 31.5808 Q2250.01 38.1433 2253.21 41.9107 Q2256.45 45.678 2261.96 45.678 Z" fill="#000000" fill-rule="nonzero" fill-opacity="1" /><path clip-path="url(#clip850)" d="M2295.99 9.62495 L2302.47 9.62495 Q2308.55 19.1851 2311.54 28.3401 Q2314.58 37.4952 2314.58 46.5287 Q2314.58 55.6027 2311.54 64.7983 Q2308.55 73.9938 2302.47 83.5134 L2295.99 83.5134 Q2301.38 74.2369 2304.01 65.0818 Q2306.68 55.8863 2306.68 46.5287 Q2306.68 37.1711 2304.01 28.0566 Q2301.38 18.942 2295.99 9.62495 Z" fill="#000000" fill-rule="nonzero" fill-opacity="1" /><polyline clip-path="url(#clip851)" style="stroke:#009af9; stroke-linecap:round; stroke-linejoin:round; stroke-width:8; stroke-opacity:1; fill:none" points="365.231,896.436 387.799,267.066 410.368,304.98 432.936,277.177 455.504,360.587 478.072,312.563 500.641,315.09 523.209,299.925 545.777,262.011 568.346,325.201 590.914,216.514 613.482,360.587 636.05,267.066 658.619,256.956 681.187,322.673 703.755,368.17 726.323,234.207 748.892,310.035 771.46,262.011 794.028,183.656 816.597,317.618 839.165,322.673 861.733,345.421 884.301,289.814 906.87,347.949 929.438,302.452 952.006,244.318 974.575,292.342 997.143,383.335 1019.71,287.287 1042.28,213.987 1064.85,251.901 1087.42,249.373 1109.98,310.035 1132.55,345.421 1155.12,304.98 1177.69,221.57 1200.26,239.263 1222.83,297.397 1245.39,269.594 1267.96,251.901 1290.53,342.894 1313.1,267.066 1335.67,395.973 1358.24,294.87 1380.8,254.428 1403.37,358.059 1425.94,269.594 1448.51,244.318 1471.08,246.845 1493.64,310.035 1516.21,234.207 1538.78,320.146 1561.35,236.735 1583.92,307.508 1606.49,254.428 1629.05,277.177 1651.62,234.207 1674.19,340.366 1696.76,363.115 1719.33,236.735 1741.9,234.207 1764.46,201.349 1787.03,279.704 1809.6,340.366 1832.17,219.042 1854.74,380.808 1877.31,272.121 1899.87,259.483 1922.44,264.539 1945.01,315.09 1967.58,304.98 1990.15,312.563 2012.72,249.373 2035.28,292.342 2057.85,221.57 2080.42,307.508 2102.99,297.397 2125.56,277.177 2148.13,302.452 2170.69,320.146 2193.26,340.366 2215.83,244.318 2238.4,363.115 2260.97,304.98 2283.53,330.256 2306.1,269.594 2328.67,244.318 2351.24,231.68 2373.81,262.011 2396.38,330.256 2418.94,259.483 2441.51,239.263 2464.08,368.17 2486.65,279.704 2509.22,355.532 2531.79,304.98 2554.35,403.556 2576.92,320.146 2599.49,289.814 2622.06,335.311 "/>
<path clip-path="url(#clip850)" d="M2195.29 892.635 L2610.02 892.635 L2610.02 788.955 L2195.29 788.955  Z" fill="#000000" fill-rule="evenodd" fill-opacity="0"/>
<polyline clip-path="url(#clip850)" style="stroke:#000000; stroke-linecap:round; stroke-linejoin:round; stroke-width:4; stroke-opacity:1; fill:none" points="2195.29,892.635 2610.02,892.635 2610.02,788.955 2195.29,788.955 2195.29,892.635 "/>
<polyline clip-path="url(#clip850)" style="stroke:#009af9; stroke-linecap:round; stroke-linejoin:round; stroke-width:8; stroke-opacity:1; fill:none" points="2221.87,840.795 2381.35,840.795 "/>
<path clip-path="url(#clip850)" d="M2423.77 828.121 L2417.42 845.32 L2430.13 845.32 L2423.77 828.121 M2421.13 823.515 L2426.43 823.515 L2439.6 858.075 L2434.74 858.075 L2431.59 849.209 L2416.01 849.209 L2412.86 858.075 L2407.93 858.075 L2421.13 823.515 Z" fill="#000000" fill-rule="nonzero" fill-opacity="1" /><path clip-path="url(#clip850)" d="M2462.29 833.144 L2462.29 837.126 Q2460.48 836.13 2458.65 835.644 Q2456.85 835.135 2454.99 835.135 Q2450.85 835.135 2448.56 837.774 Q2446.27 840.39 2446.27 845.135 Q2446.27 849.88 2448.56 852.519 Q2450.85 855.135 2454.99 855.135 Q2456.85 855.135 2458.65 854.649 Q2460.48 854.14 2462.29 853.144 L2462.29 857.079 Q2460.5 857.913 2458.58 858.329 Q2456.68 858.746 2454.53 858.746 Q2448.67 858.746 2445.23 855.066 Q2441.78 851.385 2441.78 845.135 Q2441.78 838.792 2445.25 835.158 Q2448.74 831.524 2454.81 831.524 Q2456.78 831.524 2458.65 831.941 Q2460.53 832.334 2462.29 833.144 Z" fill="#000000" fill-rule="nonzero" fill-opacity="1" /><path clip-path="url(#clip850)" d="M2473.91 824.788 L2473.91 832.149 L2482.68 832.149 L2482.68 835.459 L2473.91 835.459 L2473.91 849.533 Q2473.91 852.704 2474.76 853.607 Q2475.64 854.51 2478.3 854.51 L2482.68 854.51 L2482.68 858.075 L2478.3 858.075 Q2473.37 858.075 2471.5 856.246 Q2469.62 854.394 2469.62 849.533 L2469.62 835.459 L2466.5 835.459 L2466.5 832.149 L2469.62 832.149 L2469.62 824.788 L2473.91 824.788 Z" fill="#000000" fill-rule="nonzero" fill-opacity="1" /><path clip-path="url(#clip850)" d="M2488.28 832.149 L2492.54 832.149 L2492.54 858.075 L2488.28 858.075 L2488.28 832.149 M2488.28 822.056 L2492.54 822.056 L2492.54 827.45 L2488.28 827.45 L2488.28 822.056 Z" fill="#000000" fill-rule="nonzero" fill-opacity="1" /><path clip-path="url(#clip850)" d="M2498.4 832.149 L2502.91 832.149 L2511.01 853.908 L2519.11 832.149 L2523.63 832.149 L2513.91 858.075 L2508.12 858.075 L2498.4 832.149 Z" fill="#000000" fill-rule="nonzero" fill-opacity="1" /><path clip-path="url(#clip850)" d="M2529.51 832.149 L2533.77 832.149 L2533.77 858.075 L2529.51 858.075 L2529.51 832.149 M2529.51 822.056 L2533.77 822.056 L2533.77 827.45 L2529.51 827.45 L2529.51 822.056 Z" fill="#000000" fill-rule="nonzero" fill-opacity="1" /><path clip-path="url(#clip850)" d="M2546.89 824.788 L2546.89 832.149 L2555.66 832.149 L2555.66 835.459 L2546.89 835.459 L2546.89 849.533 Q2546.89 852.704 2547.75 853.607 Q2548.63 854.51 2551.29 854.51 L2555.66 854.51 L2555.66 858.075 L2551.29 858.075 Q2546.36 858.075 2544.48 856.246 Q2542.61 854.394 2542.61 849.533 L2542.61 835.459 L2539.48 835.459 L2539.48 832.149 L2542.61 832.149 L2542.61 824.788 L2546.89 824.788 Z" fill="#000000" fill-rule="nonzero" fill-opacity="1" /><path clip-path="url(#clip850)" d="M2572.05 860.482 Q2570.25 865.112 2568.53 866.524 Q2566.82 867.936 2563.95 867.936 L2560.55 867.936 L2560.55 864.371 L2563.05 864.371 Q2564.81 864.371 2565.78 863.538 Q2566.75 862.704 2567.93 859.603 L2568.7 857.658 L2558.21 832.149 L2562.72 832.149 L2570.83 852.427 L2578.93 832.149 L2583.44 832.149 L2572.05 860.482 Z" fill="#000000" fill-rule="nonzero" fill-opacity="1" /></svg>
